<?xml version="1.0" encoding="UTF-8" standalone="no" ?>
<!DOCTYPE svg PUBLIC "-//W3C//DTD SVG 1.1//EN" "http://www.w3.org/Graphics/SVG/1.1/DTD/svg11.dtd">
<svg xmlns="http://www.w3.org/2000/svg" xmlns:xlink="http://www.w3.org/1999/xlink" version="1.1" width="1080" height="1080" viewBox="0 0 1080 1080" xml:space="preserve">
<desc>Created with Fabric.js 5.2.4</desc>
<defs>
</defs>
<g transform="matrix(1 0 0 1 540 540)" id="55775e29-401f-4525-91fa-615992190311"  >
<rect style="stroke: none; stroke-width: 1; stroke-dasharray: none; stroke-linecap: butt; stroke-dashoffset: 0; stroke-linejoin: miter; stroke-miterlimit: 4; fill: rgb(255,255,255); fill-rule: nonzero; opacity: 1; visibility: hidden;" vector-effect="non-scaling-stroke"  x="-540" y="-540" rx="0" ry="0" width="1080" height="1080" />
</g>
<g transform="matrix(1 0 0 1 540 540)" id="6d570607-4590-4fea-bb54-08bfc4f8cee1"  >
</g>
<g transform="matrix(2.7 0 0 2.7 540 540)"  >
<g style=""   >
		<g transform="matrix(1 0 0 1 -0.31 179.84)" clip-path="url(#CLIPPATH_3)"  >
<clipPath id="CLIPPATH_3" >
	<rect transform="matrix(1 0 0 1 0.31 -179.84)" id="__lottie_element_5" x="-200" y="-200" rx="0" ry="0" width="400" height="400" />
</clipPath>
<path style="stroke: none; stroke-width: 1; stroke-dasharray: none; stroke-linecap: butt; stroke-dashoffset: 0; stroke-linejoin: miter; stroke-miterlimit: 4; fill: rgb(0,0,0); fill-rule: nonzero; opacity: 0.1;" vector-effect="non-scaling-stroke"  transform=" translate(0, 0)" d="M 163.49000549316406 0.4399999976158142 C 163.49000549316406 0.4399999976158142 122.94999694824219 -15.930000305175781 122.94999694824219 -15.930000305175781 C 122.94999694824219 -15.930000305175781 -51.94900131225586 -20.160999298095703 -51.94900131225586 -20.160999298095703 C -51.94900131225586 -20.160999298095703 -163.48899841308594 4.099999904632568 -163.48899841308594 4.099999904632568 C -163.48899841308594 4.099999904632568 -63.619998931884766 20.15999984741211 -63.619998931884766 20.15999984741211 C -63.619998931884766 20.15999984741211 163.49000549316406 0.4399999976158142 163.49000549316406 0.4399999976158142 z" stroke-linecap="round" />
</g>
		<g transform="matrix(1 0 0 1 90.34 160.03)" clip-path="url(#CLIPPATH_4)"  >
<clipPath id="CLIPPATH_4" >
	<rect transform="matrix(1 0 0 1 -90.34 -160.03)" id="__lottie_element_5" x="-200" y="-200" rx="0" ry="0" width="400" height="400" />
</clipPath>
<path style="stroke: none; stroke-width: 1; stroke-dasharray: none; stroke-linecap: butt; stroke-dashoffset: 0; stroke-linejoin: miter; stroke-miterlimit: 4; fill: rgb(79,82,82); fill-rule: nonzero; opacity: 1;" vector-effect="non-scaling-stroke"  transform=" translate(0, 0)" d="M -9.109999656677246 -11.234999656677246 C -9.109999656677246 -11.234999656677246 -6.929999828338623 11.234999656677246 -6.929999828338623 11.234999656677246 C -6.929999828338623 11.234999656677246 8.49899959564209 11.175000190734863 8.49899959564209 11.175000190734863 C 8.49899959564209 11.175000190734863 9.109999656677246 -9.475000381469727 9.109999656677246 -9.475000381469727 C 9.109999656677246 -9.475000381469727 -9.109999656677246 -11.234999656677246 -9.109999656677246 -11.234999656677246 z" stroke-linecap="round" />
</g>
		<g transform="matrix(1 0 0 1 -13.69 160.03)" clip-path="url(#CLIPPATH_5)"  >
<clipPath id="CLIPPATH_5" >
	<rect transform="matrix(1 0 0 1 13.69 -160.03)" id="__lottie_element_5" x="-200" y="-200" rx="0" ry="0" width="400" height="400" />
</clipPath>
<path style="stroke: none; stroke-width: 1; stroke-dasharray: none; stroke-linecap: butt; stroke-dashoffset: 0; stroke-linejoin: miter; stroke-miterlimit: 4; fill: rgb(79,82,82); fill-rule: nonzero; opacity: 1;" vector-effect="non-scaling-stroke"  transform=" translate(0, 0)" d="M -10.819999694824219 -11.234999656677246 C -10.819999694824219 -11.234999656677246 -8.630000114440918 11.234999656677246 -8.630000114440918 11.234999656677246 C -8.630000114440918 11.234999656677246 6.789999961853027 11.175000190734863 6.789999961853027 11.175000190734863 C 6.789999961853027 11.175000190734863 10.819999694824219 -9.475000381469727 10.819999694824219 -9.475000381469727 C 10.819999694824219 -9.475000381469727 -10.819999694824219 -11.234999656677246 -10.819999694824219 -11.234999656677246 z" stroke-linecap="round" />
</g>
		<g transform="matrix(1 0 0 1 -32.36 163.27)" clip-path="url(#CLIPPATH_6)"  >
<clipPath id="CLIPPATH_6" >
	<rect transform="matrix(1 0 0 1 32.36 -163.27)" id="__lottie_element_5" x="-200" y="-200" rx="0" ry="0" width="400" height="400" />
</clipPath>
<path style="stroke: none; stroke-width: 1; stroke-dasharray: none; stroke-linecap: butt; stroke-dashoffset: 0; stroke-linejoin: miter; stroke-miterlimit: 4; fill: rgb(133,133,133); fill-rule: nonzero; opacity: 1;" vector-effect="non-scaling-stroke"  transform=" translate(0, 0)" d="M 11.770000457763672 14.99899959564209 C 11.770000457763672 14.99899959564209 14.710000038146973 -16.510000228881836 14.710000038146973 -16.510000228881836 C 14.710000038146973 -16.510000228881836 -14.710000038146973 -13.10099983215332 -14.710000038146973 -13.10099983215332 C -14.710000038146973 -13.10099983215332 -12.960000038146973 16.510000228881836 -12.960000038146973 16.510000228881836 C -12.960000038146973 16.510000228881836 11.770000457763672 14.99899959564209 11.770000457763672 14.99899959564209 z" stroke-linecap="round" />
</g>
		<g transform="matrix(1 0 0 1 109.02 163.27)" clip-path="url(#CLIPPATH_7)"  >
<clipPath id="CLIPPATH_7" >
	<rect transform="matrix(1 0 0 1 -109.02 -163.27)" id="__lottie_element_5" x="-200" y="-200" rx="0" ry="0" width="400" height="400" />
</clipPath>
<path style="stroke: none; stroke-width: 1; stroke-dasharray: none; stroke-linecap: butt; stroke-dashoffset: 0; stroke-linejoin: miter; stroke-miterlimit: 4; fill: rgb(133,133,133); fill-rule: nonzero; opacity: 1;" vector-effect="non-scaling-stroke"  transform=" translate(0, 0)" d="M 12.770000457763672 16.510000228881836 C 12.770000457763672 16.510000228881836 13.619999885559082 -12.529999732971191 13.619999885559082 -12.529999732971191 C 13.619999885559082 -12.529999732971191 -13.619999885559082 -16.51099967956543 -13.619999885559082 -16.51099967956543 C -13.619999885559082 -16.51099967956543 -13.100000381469727 16.510000228881836 -13.100000381469727 16.510000228881836 C -13.100000381469727 16.510000228881836 12.770000457763672 16.510000228881836 12.770000457763672 16.510000228881836 z" stroke-linecap="round" />
</g>
		<g transform="matrix(1 0 0 1 38.4 130.73)" clip-path="url(#CLIPPATH_8)"  >
<clipPath id="CLIPPATH_8" >
	<rect transform="matrix(1 0 0 1 -38.4 -130.73)" id="__lottie_element_5" x="-200" y="-200" rx="0" ry="0" width="400" height="400" />
</clipPath>
<path style="stroke: none; stroke-width: 1; stroke-dasharray: none; stroke-linecap: butt; stroke-dashoffset: 0; stroke-linejoin: miter; stroke-miterlimit: 4; fill: rgb(133,133,133); fill-rule: nonzero; opacity: 1;" vector-effect="non-scaling-stroke"  transform=" translate(0, 0)" d="M 84.23500061035156 23.426000595092773 C 84.23500061035156 23.426000595092773 84.5250015258789 8.925999641418457 84.5250015258789 8.925999641418457 C 84.5250015258789 8.925999641418457 5.554999828338623 -23.426000595092773 5.554999828338623 -23.426000595092773 C 5.554999828338623 -23.426000595092773 -84.5250015258789 2.325000047683716 -84.5250015258789 2.325000047683716 C -84.5250015258789 2.325000047683716 -83.83499908447266 23.426000595092773 -83.83499908447266 23.426000595092773 C -83.83499908447266 23.426000595092773 84.23500061035156 23.426000595092773 84.23500061035156 23.426000595092773 z" stroke-linecap="round" />
</g>
		<g transform="matrix(1 0 0 1 37.36 127.63)" clip-path="url(#CLIPPATH_9)"  >
<clipPath id="CLIPPATH_9" >
	<rect transform="matrix(1 0 0 1 -37.36 -127.63)" id="__lottie_element_5" x="-200" y="-200" rx="0" ry="0" width="400" height="400" />
</clipPath>
<path style="stroke: none; stroke-width: 1; stroke-dasharray: none; stroke-linecap: butt; stroke-dashoffset: 0; stroke-linejoin: miter; stroke-miterlimit: 4; fill: rgb(196,196,196); fill-rule: nonzero; opacity: 1;" vector-effect="non-scaling-stroke"  transform=" translate(0, 0)" d="M 77.61000061035156 12.020000457763672 C 77.61000061035156 12.020000457763672 -77.61000061035156 7.178999900817871 -77.61000061035156 7.178999900817871 C -77.61000061035156 7.178999900817871 8.479999542236328 -12.020000457763672 8.479999542236328 -12.020000457763672 C 8.479999542236328 -12.020000457763672 77.61000061035156 12.020000457763672 77.61000061035156 12.020000457763672 z" stroke-linecap="round" />
</g>
		<g transform="matrix(1 0 0 1 1.6 145.96)" clip-path="url(#CLIPPATH_10)"  >
<clipPath id="CLIPPATH_10" >
	<rect transform="matrix(1 0 0 1 -1.6 -145.96)" id="__lottie_element_5" x="-200" y="-200" rx="0" ry="0" width="400" height="400" />
</clipPath>
<path style="stroke: none; stroke-width: 1; stroke-dasharray: none; stroke-linecap: butt; stroke-dashoffset: 0; stroke-linejoin: miter; stroke-miterlimit: 4; fill: rgb(0,0,0); fill-rule: nonzero; opacity: 0.1;" vector-effect="non-scaling-stroke"  transform=" translate(0, 0)" d="M 46.125 -14.03499984741211 C 46.125 -14.03499984741211 -46.125 14.03499984741211 -46.125 14.03499984741211 C -46.125 14.03499984741211 -40.6150016784668 3.2760000228881836 -40.6150016784668 3.2760000228881836 C -40.6150016784668 3.2760000228881836 3.186000108718872 -12.194999694824219 3.186000108718872 -12.194999694824219 C 3.186000108718872 -12.194999694824219 46.125 -14.03499984741211 46.125 -14.03499984741211 z" stroke-linecap="round" />
</g>
		<g transform="matrix(1 0 0 1 85.32 138.31)" clip-path="url(#CLIPPATH_11)"  >
<clipPath id="CLIPPATH_11" >
	<rect transform="matrix(1 0 0 1 -85.32 -138.31)" id="__lottie_element_5" x="-200" y="-200" rx="0" ry="0" width="400" height="400" />
</clipPath>
<path style="stroke: none; stroke-width: 1; stroke-dasharray: none; stroke-linecap: butt; stroke-dashoffset: 0; stroke-linejoin: miter; stroke-miterlimit: 4; fill: rgb(43,43,43); fill-rule: nonzero; opacity: 0.1;" vector-effect="non-scaling-stroke"  transform=" translate(0, 0)" d="M -37.60499954223633 -14.380000114440918 C -37.60499954223633 -14.380000114440918 -37.60499954223633 -6.389999866485596 -37.60499954223633 -6.389999866485596 C -37.60499954223633 -6.389999866485596 37.255001068115234 14.380999565124512 37.255001068115234 14.380999565124512 C 37.255001068115234 14.380999565124512 37.60499954223633 1.340999960899353 37.60499954223633 1.340999960899353 C 37.60499954223633 1.340999960899353 -37.60499954223633 -14.380000114440918 -37.60499954223633 -14.380000114440918 z" stroke-linecap="round" />
</g>
		<g transform="matrix(1 0 0 1 6.54 130.29)" clip-path="url(#CLIPPATH_12)"  >
<clipPath id="CLIPPATH_12" >
	<rect transform="matrix(1 0 0 1 -6.54 -130.29)" id="__lottie_element_5" x="-200" y="-200" rx="0" ry="0" width="400" height="400" />
</clipPath>
<path style="stroke: none; stroke-width: 1; stroke-dasharray: none; stroke-linecap: butt; stroke-dashoffset: 0; stroke-linejoin: miter; stroke-miterlimit: 4; fill: rgb(206,206,205); fill-rule: nonzero; opacity: 1;" vector-effect="non-scaling-stroke"  transform=" translate(0, 0)" d="M -45.55500030517578 18.94099998474121 C -45.55500030517578 18.94099998474121 41.185001373291016 1.6299999952316284 41.185001373291016 1.6299999952316284 C 41.185001373291016 1.6299999952316284 45.55500030517578 -8.510000228881836 45.55500030517578 -8.510000228881836 C 45.55500030517578 -8.510000228881836 39.79499816894531 -18.94099998474121 39.79499816894531 -18.94099998474121 C 39.79499816894531 -18.94099998474121 -42.814998626708984 -9.638999938964844 -42.814998626708984 -9.638999938964844 C -42.814998626708984 -9.638999938964844 -45.55500030517578 18.94099998474121 -45.55500030517578 18.94099998474121 z" stroke-linecap="round" />
</g>
		<g transform="matrix(1 0 0 1 5.02 100.85)" clip-path="url(#CLIPPATH_13)"  >
<clipPath id="CLIPPATH_13" >
	<rect transform="matrix(1 0 0 1 -5.02 -100.85)" id="__lottie_element_5" x="-200" y="-200" rx="0" ry="0" width="400" height="400" />
</clipPath>
<path style="stroke: none; stroke-width: 1; stroke-dasharray: none; stroke-linecap: butt; stroke-dashoffset: 0; stroke-linejoin: miter; stroke-miterlimit: 4; fill: rgb(157,160,161); fill-rule: nonzero; opacity: 1;" vector-effect="non-scaling-stroke"  transform=" translate(0, 0)" d="M 40.814998626708984 14.760000228881836 C 40.814998626708984 14.760000228881836 -41.30500030517578 19.801000595092773 -41.30500030517578 19.801000595092773 C -41.30500030517578 19.801000595092773 -36.185001373291016 -19.801000595092773 -36.185001373291016 -19.801000595092773 C -36.185001373291016 -19.801000595092773 -12.21500015258789 -13.789999961853027 -12.21500015258789 -13.789999961853027 C -12.21500015258789 -13.789999961853027 37.255001068115234 -1.3309999704360962 37.255001068115234 -1.3309999704360962 C 37.255001068115234 -1.3309999704360962 41.30500030517578 7.420000076293945 41.30500030517578 7.420000076293945 C 41.30500030517578 7.420000076293945 40.814998626708984 14.760000228881836 40.814998626708984 14.760000228881836 z" stroke-linecap="round" />
</g>
		<g transform="matrix(1 0 0 1 84.51 100.12)" clip-path="url(#CLIPPATH_14)"  >
<clipPath id="CLIPPATH_14" >
	<rect transform="matrix(1 0 0 1 -84.51 -100.12)" id="__lottie_element_5" x="-200" y="-200" rx="0" ry="0" width="400" height="400" />
</clipPath>
<path style="stroke: none; stroke-width: 1; stroke-dasharray: none; stroke-linecap: butt; stroke-dashoffset: 0; stroke-linejoin: miter; stroke-miterlimit: 4; fill: rgb(196,196,196); fill-rule: nonzero; opacity: 1;" vector-effect="non-scaling-stroke"  transform=" translate(0, 0)" d="M -42.22999954223633 -0.5950000286102295 C -42.22999954223633 -0.5950000286102295 -38.66999816894531 15.496000289916992 -38.66999816894531 15.496000289916992 C -38.66999816894531 15.496000289916992 -6.230000019073486 19.065000534057617 -6.230000019073486 19.065000534057617 C -6.230000019073486 19.065000534057617 31.149999618530273 9.944999694824219 31.149999618530273 9.944999694824219 C 31.149999618530273 9.944999694824219 42.22999954223633 -19.065000534057617 42.22999954223633 -19.065000534057617 C 42.22999954223633 -19.065000534057617 -42.22999954223633 -0.5950000286102295 -42.22999954223633 -0.5950000286102295 z" stroke-linecap="round" />
</g>
		<g transform="matrix(1 0 0 1 95.56 126.31)" clip-path="url(#CLIPPATH_15)"  >
<clipPath id="CLIPPATH_15" >
	<rect transform="matrix(1 0 0 1 -95.56 -126.31)" id="__lottie_element_5" x="-200" y="-200" rx="0" ry="0" width="400" height="400" />
</clipPath>
<path style="stroke: none; stroke-width: 1; stroke-dasharray: none; stroke-linecap: butt; stroke-dashoffset: 0; stroke-linejoin: miter; stroke-miterlimit: 4; fill: rgb(235,235,235); fill-rule: nonzero; opacity: 1;" vector-effect="non-scaling-stroke"  transform=" translate(0, 0)" d="M -49.71500015258789 -10.699000358581543 C -49.71500015258789 -10.699000358581543 -47.834999084472656 5.611000061035156 -47.834999084472656 5.611000061035156 C -47.834999084472656 5.611000061035156 49.71500015258789 16.25 49.71500015258789 16.25 C 49.71500015258789 16.25 20.104999542236328 -16.25 20.104999542236328 -16.25 C 20.104999542236328 -16.25 -49.71500015258789 -10.699000358581543 -49.71500015258789 -10.699000358581543 z" stroke-linecap="round" />
</g>
		<g transform="matrix(1 0 0 1 99.27 114.97)" clip-path="url(#CLIPPATH_16)"  >
<clipPath id="CLIPPATH_16" >
	<rect transform="matrix(1 0 0 1 -99.27 -114.97)" id="__lottie_element_5" x="-200" y="-200" rx="0" ry="0" width="400" height="400" />
</clipPath>
<path style="stroke: none; stroke-width: 1; stroke-dasharray: none; stroke-linecap: butt; stroke-dashoffset: 0; stroke-linejoin: miter; stroke-miterlimit: 4; fill: rgb(0,0,0); fill-rule: nonzero; opacity: 0.1;" vector-effect="non-scaling-stroke"  transform=" translate(0.03, -0.02)" d="M 16.354999542236328 -4.86207914352417 C 16.354999542236328 -4.86207914352417 3.194999933242798 4.908920764923096 3.194999933242798 4.908920764923096 C 3.194999933242798 4.908920764923096 -16.41728401184082 -1.7628034353256226 -16.41728401184082 -1.7628034353256226 C -16.41728401184082 -1.7628034353256226 16.354999542236328 -4.86207914352417 16.354999542236328 -4.86207914352417 z" stroke-linecap="round" />
</g>
		<g transform="matrix(1 0 0 1 60.01 123)" clip-path="url(#CLIPPATH_17)"  >
<clipPath id="CLIPPATH_17" >
	<rect transform="matrix(1 0 0 1 -60.01 -123)" id="__lottie_element_5" x="-200" y="-200" rx="0" ry="0" width="400" height="400" />
</clipPath>
<path style="stroke: none; stroke-width: 1; stroke-dasharray: none; stroke-linecap: butt; stroke-dashoffset: 0; stroke-linejoin: miter; stroke-miterlimit: 4; fill: rgb(0,0,0); fill-rule: nonzero; opacity: 0.1;" vector-effect="non-scaling-stroke"  transform=" translate(0, -0.02)" d="M 13.680000305175781 -3.78955340385437 C 13.680000305175781 -3.78955340385437 -1.2799999713897705 3.820446491241455 -1.2799999713897705 3.820446491241455 C -1.2799999713897705 3.820446491241455 -13.680000305175781 -3.7623982429504395 -13.680000305175781 -3.7623982429504395 C -13.680000305175781 -3.7623982429504395 13.680000305175781 -3.78955340385437 13.680000305175781 -3.78955340385437 z" stroke-linecap="round" />
</g>
		<g transform="matrix(1 0 0 1 19.22 109.02)" clip-path="url(#CLIPPATH_18)"  >
<clipPath id="CLIPPATH_18" >
	<rect transform="matrix(1 0 0 1 -19.22 -109.02)" id="__lottie_element_5" x="-200" y="-200" rx="0" ry="0" width="400" height="400" />
</clipPath>
<path style="stroke: none; stroke-width: 1; stroke-dasharray: none; stroke-linecap: butt; stroke-dashoffset: 0; stroke-linejoin: miter; stroke-miterlimit: 4; fill: rgb(0,0,0); fill-rule: nonzero; opacity: 0.1;" vector-effect="non-scaling-stroke"  transform=" translate(0.09, -0.77)" d="M 16.03499984741211 1.3634189367294312 C 16.03499984741211 1.3634189367294312 0.9739999771118164 6.533419132232666 0.9739999771118164 6.533419132232666 C 0.9739999771118164 6.533419132232666 -16.221853256225586 -4.991753578186035 -16.221853256225586 -4.991753578186035 C -16.221853256225586 -4.991753578186035 16.03499984741211 1.3634189367294312 16.03499984741211 1.3634189367294312 z" stroke-linecap="round" />
</g>
		<g transform="matrix(1 0 0 1 89.18 91.65)" clip-path="url(#CLIPPATH_19)"  >
<clipPath id="CLIPPATH_19" >
	<rect transform="matrix(1 0 0 1 -89.18 -91.65)" id="__lottie_element_5" x="-200" y="-200" rx="0" ry="0" width="400" height="400" />
</clipPath>
<path style="stroke: none; stroke-width: 1; stroke-dasharray: none; stroke-linecap: butt; stroke-dashoffset: 0; stroke-linejoin: miter; stroke-miterlimit: 4; fill: rgb(144,117,159); fill-rule: nonzero; opacity: 1;" vector-effect="non-scaling-stroke"  transform=" translate(-0.08, 0)" d="M 9.109999656677246 -10.800999641418457 C 9.109999656677246 -10.800999641418457 -10.664538383483887 0.44944483041763306 -10.664538383483887 0.44944483041763306 C -10.664538383483887 0.44944483041763306 10.819999694824219 10.800999641418457 10.819999694824219 10.800999641418457 C 10.819999694824219 10.800999641418457 9.109999656677246 -10.800999641418457 9.109999656677246 -10.800999641418457 z" stroke-linecap="round" />
</g>
		<g transform="matrix(1 0 0 1 1056.8 1293.05)" clip-path="url(#CLIPPATH_20)"  >
<clipPath id="CLIPPATH_20" >
	<rect transform="matrix(1 0 0 1 -1056.8 -1293.05)" id="__lottie_element_5" x="-200" y="-200" rx="0" ry="0" width="400" height="400" />
</clipPath>
<path style="stroke: none; stroke-width: 1; stroke-dasharray: none; stroke-linecap: butt; stroke-dashoffset: 0; stroke-linejoin: miter; stroke-miterlimit: 4; fill: rgb(144,117,159); fill-rule: nonzero; opacity: 1;" vector-effect="non-scaling-stroke"  transform=" translate(0, 0)" d="M 7.369999885559082 -10.800999641418457 C 7.369999885559082 -10.800999641418457 -9.079999923706055 0.9089999794960022 -9.079999923706055 0.9089999794960022 C -9.079999923706055 0.9089999794960022 9.079999923706055 10.800999641418457 9.079999923706055 10.800999641418457 C 9.079999923706055 10.800999641418457 7.369999885559082 -10.800999641418457 7.369999885559082 -10.800999641418457 z" stroke-linecap="round" />
</g>
		<g transform="matrix(1 0 0 1 805.44 994.44)" clip-path="url(#CLIPPATH_21)"  >
<clipPath id="CLIPPATH_21" >
	<rect transform="matrix(1 0 0 1 -805.44 -994.44)" id="__lottie_element_5" x="-200" y="-200" rx="0" ry="0" width="400" height="400" />
</clipPath>
<path style="stroke: none; stroke-width: 1; stroke-dasharray: none; stroke-linecap: butt; stroke-dashoffset: 0; stroke-linejoin: miter; stroke-miterlimit: 4; fill: rgb(144,117,159); fill-rule: nonzero; opacity: 1;" vector-effect="non-scaling-stroke"  transform=" translate(0, 0)" d="M 7.369999885559082 -10.800999641418457 C 7.369999885559082 -10.800999641418457 -9.079999923706055 0.9089999794960022 -9.079999923706055 0.9089999794960022 C -9.079999923706055 0.9089999794960022 9.079999923706055 10.800999641418457 9.079999923706055 10.800999641418457 C 9.079999923706055 10.800999641418457 7.369999885559082 -10.800999641418457 7.369999885559082 -10.800999641418457 z" stroke-linecap="round" />
</g>
		<g transform="matrix(1 0 0 1 554.08 695.83)" clip-path="url(#CLIPPATH_22)"  >
<clipPath id="CLIPPATH_22" >
	<rect transform="matrix(1 0 0 1 -554.08 -695.83)" id="__lottie_element_5" x="-200" y="-200" rx="0" ry="0" width="400" height="400" />
</clipPath>
<path style="stroke: none; stroke-width: 1; stroke-dasharray: none; stroke-linecap: butt; stroke-dashoffset: 0; stroke-linejoin: miter; stroke-miterlimit: 4; fill: rgb(144,117,159); fill-rule: nonzero; opacity: 1;" vector-effect="non-scaling-stroke"  transform=" translate(0, 0)" d="M 7.369999885559082 -10.800999641418457 C 7.369999885559082 -10.800999641418457 -9.079999923706055 0.9089999794960022 -9.079999923706055 0.9089999794960022 C -9.079999923706055 0.9089999794960022 9.079999923706055 10.800999641418457 9.079999923706055 10.800999641418457 C 9.079999923706055 10.800999641418457 7.369999885559082 -10.800999641418457 7.369999885559082 -10.800999641418457 z" stroke-linecap="round" />
</g>
		<g transform="matrix(1 0 0 1 302.72 397.22)" clip-path="url(#CLIPPATH_23)"  >
<clipPath id="CLIPPATH_23" >
	<rect transform="matrix(1 0 0 1 -302.72 -397.22)" id="__lottie_element_5" x="-200" y="-200" rx="0" ry="0" width="400" height="400" />
</clipPath>
<path style="stroke: none; stroke-width: 1; stroke-dasharray: none; stroke-linecap: butt; stroke-dashoffset: 0; stroke-linejoin: miter; stroke-miterlimit: 4; fill: rgb(144,117,159); fill-rule: nonzero; opacity: 1;" vector-effect="non-scaling-stroke"  transform=" translate(0, 0)" d="M 7.369999885559082 -10.800999641418457 C 7.369999885559082 -10.800999641418457 -9.079999923706055 0.9089999794960022 -9.079999923706055 0.9089999794960022 C -9.079999923706055 0.9089999794960022 9.079999923706055 10.800999641418457 9.079999923706055 10.800999641418457 C 9.079999923706055 10.800999641418457 7.369999885559082 -10.800999641418457 7.369999885559082 -10.800999641418457 z" stroke-linecap="round" />
</g>
		<g transform="matrix(1 0 0 1 51.36 98.61)" clip-path="url(#CLIPPATH_24)"  >
<clipPath id="CLIPPATH_24" >
	<rect transform="matrix(1 0 0 1 -51.36 -98.61)" id="__lottie_element_5" x="-200" y="-200" rx="0" ry="0" width="400" height="400" />
</clipPath>
<path style="stroke: none; stroke-width: 1; stroke-dasharray: none; stroke-linecap: butt; stroke-dashoffset: 0; stroke-linejoin: miter; stroke-miterlimit: 4; fill: rgb(144,117,159); fill-rule: nonzero; opacity: 1;" vector-effect="non-scaling-stroke"  transform=" translate(0, 0)" d="M 7.369999885559082 -10.800999641418457 C 7.369999885559082 -10.800999641418457 -9.079999923706055 0.03701723366975784 -9.079999923706055 0.03701723366975784 C -9.079999923706055 0.03701723366975784 9.079999923706055 10.800999641418457 9.079999923706055 10.800999641418457 C 9.079999923706055 10.800999641418457 7.369999885559082 -10.800999641418457 7.369999885559082 -10.800999641418457 z" stroke-linecap="round" />
</g>
		<g transform="matrix(1 0 0 1 12.38 86.58)" clip-path="url(#CLIPPATH_25)"  >
<clipPath id="CLIPPATH_25" >
	<rect transform="matrix(1 0 0 1 -12.38 -86.58)" id="__lottie_element_5" x="-200" y="-200" rx="0" ry="0" width="400" height="400" />
</clipPath>
<path style="stroke: none; stroke-width: 1; stroke-dasharray: none; stroke-linecap: butt; stroke-dashoffset: 0; stroke-linejoin: miter; stroke-miterlimit: 4; fill: rgb(144,117,159); fill-rule: nonzero; opacity: 1;" vector-effect="non-scaling-stroke"  transform=" translate(-0.16, 0)" d="M 8.324999809265137 -10.800000190734863 C 8.324999809265137 -10.800000190734863 -9.723577499389648 3.794267177581787 -9.723577499389648 3.794267177581787 C -9.723577499389648 3.794267177581787 10.03499984741211 10.800000190734863 10.03499984741211 10.800000190734863 C 10.03499984741211 10.800000190734863 8.324999809265137 -10.800000190734863 8.324999809265137 -10.800000190734863 z" stroke-linecap="round" />
</g>
		<g transform="matrix(1 0 0 1 100.35 98.28)" clip-path="url(#CLIPPATH_26)"  >
<clipPath id="CLIPPATH_26" >
	<rect transform="matrix(1 0 0 1 -100.35 -98.28)" id="__lottie_element_5" x="-200" y="-200" rx="0" ry="0" width="400" height="400" />
</clipPath>
<path style="stroke: none; stroke-width: 1; stroke-dasharray: none; stroke-linecap: butt; stroke-dashoffset: 0; stroke-linejoin: miter; stroke-miterlimit: 4; fill: rgb(120,93,135); fill-rule: nonzero; opacity: 1;" vector-effect="non-scaling-stroke"  transform=" translate(0, 0)" d="M -2.1449999809265137 -17.43000030517578 C -2.1449999809265137 -17.43000030517578 2.1449999809265137 -17.43000030517578 2.1449999809265137 -17.43000030517578 C 2.1449999809265137 -17.43000030517578 2.1449999809265137 17.43000030517578 2.1449999809265137 17.43000030517578 C 2.1449999809265137 17.43000030517578 -2.1449999809265137 17.43000030517578 -2.1449999809265137 17.43000030517578 C -2.1449999809265137 17.43000030517578 -2.1449999809265137 -17.43000030517578 -2.1449999809265137 -17.43000030517578 z" stroke-linecap="round" />
</g>
		<g transform="matrix(1 0 0 1 60.88 105.24)" clip-path="url(#CLIPPATH_27)"  >
<clipPath id="CLIPPATH_27" >
	<rect transform="matrix(1 0 0 1 -60.88 -105.24)" id="__lottie_element_5" x="-200" y="-200" rx="0" ry="0" width="400" height="400" />
</clipPath>
<path style="stroke: none; stroke-width: 1; stroke-dasharray: none; stroke-linecap: butt; stroke-dashoffset: 0; stroke-linejoin: miter; stroke-miterlimit: 4; fill: rgb(120,93,135); fill-rule: nonzero; opacity: 1;" vector-effect="non-scaling-stroke"  transform=" translate(0, 0)" d="M -2.1449999809265137 -17.43000030517578 C -2.1449999809265137 -17.43000030517578 2.1449999809265137 -17.43000030517578 2.1449999809265137 -17.43000030517578 C 2.1449999809265137 -17.43000030517578 2.1449999809265137 17.43000030517578 2.1449999809265137 17.43000030517578 C 2.1449999809265137 17.43000030517578 -2.1449999809265137 17.43000030517578 -2.1449999809265137 17.43000030517578 C -2.1449999809265137 17.43000030517578 -2.1449999809265137 -17.43000030517578 -2.1449999809265137 -17.43000030517578 z" stroke-linecap="round" />
</g>
		<g transform="matrix(1 0 0 1 22.69 93.21)" clip-path="url(#CLIPPATH_28)"  >
<clipPath id="CLIPPATH_28" >
	<rect transform="matrix(1 0 0 1 -22.69 -93.21)" id="__lottie_element_5" x="-200" y="-200" rx="0" ry="0" width="400" height="400" />
</clipPath>
<path style="stroke: none; stroke-width: 1; stroke-dasharray: none; stroke-linecap: butt; stroke-dashoffset: 0; stroke-linejoin: miter; stroke-miterlimit: 4; fill: rgb(120,93,135); fill-rule: nonzero; opacity: 1;" vector-effect="non-scaling-stroke"  transform=" translate(0, 0)" d="M -2.1449999809265137 -17.43000030517578 C -2.1449999809265137 -17.43000030517578 2.1449999809265137 -17.43000030517578 2.1449999809265137 -17.43000030517578 C 2.1449999809265137 -17.43000030517578 2.1449999809265137 17.43000030517578 2.1449999809265137 17.43000030517578 C 2.1449999809265137 17.43000030517578 -2.1449999809265137 17.43000030517578 -2.1449999809265137 17.43000030517578 C -2.1449999809265137 17.43000030517578 -2.1449999809265137 -17.43000030517578 -2.1449999809265137 -17.43000030517578 z" stroke-linecap="round" />
</g>
		<g transform="matrix(0.96 -0.29 0.29 0.96 -6.86 12.4)" clip-path="url(#CLIPPATH_29)"  >
<clipPath id="CLIPPATH_29" >
	<rect transform="matrix(0.96 0.29 -0.29 0.96 10.12 -9.92)" id="__lottie_element_5" x="-200" y="-200" rx="0" ry="0" width="400" height="400" />
</clipPath>
<path style="stroke: none; stroke-width: 1; stroke-dasharray: none; stroke-linecap: butt; stroke-dashoffset: 0; stroke-linejoin: miter; stroke-miterlimit: 4; fill: rgb(115,77,95); fill-rule: nonzero; opacity: 1;" vector-effect="non-scaling-stroke"  transform=" translate(10.59, 1.59)" d="M 5.140999794006348 -33.494998931884766 C 5.140999794006348 -33.494998931884766 23.66806411743164 21.368227005004883 23.66806411743164 21.368227005004883 C 23.66806411743164 21.368227005004883 -5.747541904449463 43.853271484375 -5.747541904449463 43.853271484375 C -5.747541904449463 43.853271484375 -44.8390007019043 -31.969999313354492 -44.8390007019043 -31.969999313354492 C -44.8390007019043 -31.969999313354492 -14.350000381469727 -47.03499984741211 -14.350000381469727 -47.03499984741211 C -14.350000381469727 -47.03499984741211 5.140999794006348 -33.494998931884766 5.140999794006348 -33.494998931884766 z" stroke-linecap="round" />
</g>
		<g transform="matrix(1 -0.06 0.06 1 28.14 22.9)" clip-path="url(#CLIPPATH_30)"  >
<clipPath id="CLIPPATH_30" >
	<rect transform="matrix(1 0.06 -0.06 1 -26.62 -24.66)" id="__lottie_element_5" x="-200" y="-200" rx="0" ry="0" width="400" height="400" />
</clipPath>
<path style="stroke: none; stroke-width: 1; stroke-dasharray: none; stroke-linecap: butt; stroke-dashoffset: 0; stroke-linejoin: miter; stroke-miterlimit: 4; fill: rgb(149,98,123); fill-rule: nonzero; opacity: 1;" vector-effect="non-scaling-stroke"  transform=" translate(0.49, -1.43)" d="M -10.020000457763672 -26.690000534057617 C -10.020000457763672 -26.690000534057617 -19.692136764526367 32.96253967285156 -19.692136764526367 32.96253967285156 C -19.692136764526367 32.96253967285156 18.712398529052734 16.970077514648438 18.712398529052734 16.970077514648438 C 18.712398529052734 16.970077514648438 7.820000171661377 -24.860000610351562 7.820000171661377 -24.860000610351562 C 7.820000171661377 -24.860000610351562 0.33899998664855957 -30.100000381469727 0.33899998664855957 -30.100000381469727 C 0.33899998664855957 -30.100000381469727 -10.020000457763672 -26.690000534057617 -10.020000457763672 -26.690000534057617 z" stroke-linecap="round" />
</g>
		<g transform="matrix(1 0 0 1 -66 150.17)" clip-path="url(#CLIPPATH_31)"  >
<clipPath id="CLIPPATH_31" >
	<rect transform="matrix(1 0 0 1 66 -150.17)" id="__lottie_element_5" x="-200" y="-200" rx="0" ry="0" width="400" height="400" />
</clipPath>
<path style="stroke: none; stroke-width: 1; stroke-dasharray: none; stroke-linecap: butt; stroke-dashoffset: 0; stroke-linejoin: miter; stroke-miterlimit: 4; fill: rgb(84,48,66); fill-rule: nonzero; opacity: 1;" vector-effect="non-scaling-stroke"  transform=" translate(-134, -350.17)" d="M 148.875 335.125 C 148.875 335.125 136.63699340820312 341.41400146484375 136.63699340820312 341.41400146484375 C 136.63699340820312 341.41400146484375 119.125 336.375 119.125 336.375 C 119.125 336.375 121.75 361.75 121.75 361.75 C 121.75 361.75 132.1219940185547 365.2099914550781 132.1219940185547 365.2099914550781 C 132.1219940185547 365.2099914550781 142.75 361.375 142.75 361.375 C 142.75 361.375 148.875 335.125 148.875 335.125 z" stroke-linecap="round" />
</g>
		<g transform="matrix(1 0 0 1 -35.55 117.2)" clip-path="url(#CLIPPATH_32)"  >
<clipPath id="CLIPPATH_32" >
	<rect transform="matrix(1 0 0 1 35.55 -117.2)" id="__lottie_element_5" x="-200" y="-200" rx="0" ry="0" width="400" height="400" />
</clipPath>
<path style="stroke: none; stroke-width: 1; stroke-dasharray: none; stroke-linecap: butt; stroke-dashoffset: 0; stroke-linejoin: miter; stroke-miterlimit: 4; fill: rgb(115,77,95); fill-rule: nonzero; opacity: 1;" vector-effect="non-scaling-stroke"  transform=" translate(-0.01, 0.57)" d="M 28.396991729736328 -31.84361457824707 C 28.396991729736328 -31.84361457824707 -28.3700008392334 -8.39900016784668 -28.3700008392334 -8.39900016784668 C -28.3700008392334 -8.39900016784668 -28.3700008392334 23.81999969482422 -28.3700008392334 23.81999969482422 C -28.3700008392334 23.81999969482422 -14.359999656677246 30.711000442504883 -14.359999656677246 30.711000442504883 C -14.359999656677246 30.711000442504883 5.400000095367432 14.149999618530273 5.400000095367432 14.149999618530273 C 5.400000095367432 14.149999618530273 28.396991729736328 -31.84361457824707 28.396991729736328 -31.84361457824707 z" stroke-linecap="round" />
</g>
		<g transform="matrix(1 0 0 1 -49.05 148.48)" clip-path="url(#CLIPPATH_33)"  >
<clipPath id="CLIPPATH_33" >
	<rect transform="matrix(1 0 0 1 49.05 -148.48)" id="__lottie_element_5" x="-200" y="-200" rx="0" ry="0" width="400" height="400" />
</clipPath>
<path style="stroke: none; stroke-width: 1; stroke-dasharray: none; stroke-linecap: butt; stroke-dashoffset: 0; stroke-linejoin: miter; stroke-miterlimit: 4; fill: rgb(83,47,66); fill-rule: nonzero; opacity: 1;" vector-effect="non-scaling-stroke"  transform=" translate(0, 0)" d="M 18.895000457763672 -16.565000534057617 C 18.895000457763672 -16.565000534057617 -14.875 -6.894999980926514 -14.875 -6.894999980926514 C -14.875 -6.894999980926514 -18.895000457763672 16.565000534057617 -18.895000457763672 16.565000534057617 C -18.895000457763672 16.565000534057617 -6.434999942779541 16.565000534057617 -6.434999942779541 16.565000534057617 C -6.434999942779541 16.565000534057617 4.525000095367432 11.505000114440918 4.525000095367432 11.505000114440918 C 4.525000095367432 11.505000114440918 18.895000457763672 -16.565000534057617 18.895000457763672 -16.565000534057617 z" stroke-linecap="round" />
</g>
		<g transform="matrix(1 0 0 1 -87.86 115.61)" clip-path="url(#CLIPPATH_34)"  >
<clipPath id="CLIPPATH_34" >
	<rect transform="matrix(1 0 0 1 87.86 -115.61)" id="__lottie_element_5" x="-200" y="-200" rx="0" ry="0" width="400" height="400" />
</clipPath>
<path style="stroke: none; stroke-width: 1; stroke-dasharray: none; stroke-linecap: butt; stroke-dashoffset: 0; stroke-linejoin: miter; stroke-miterlimit: 4; fill: rgb(149,98,123); fill-rule: nonzero; opacity: 1;" vector-effect="non-scaling-stroke"  transform=" translate(0, 0)" d="M 23.924999237060547 25.979999542236328 C 23.924999237060547 25.979999542236328 28.5049991607666 -0.7400000095367432 28.5049991607666 -0.7400000095367432 C 28.5049991607666 -0.7400000095367432 9.604999542236328 -17.66900062561035 9.604999542236328 -17.66900062561035 C 9.604999542236328 -17.66900062561035 -28.5049991607666 -34.560001373291016 -28.5049991607666 -34.560001373291016 C -28.5049991607666 -34.560001373291016 -17.594999313354492 20.639999389648438 -17.594999313354492 20.639999389648438 C -17.594999313354492 20.639999389648438 4.204999923706055 34.560001373291016 4.204999923706055 34.560001373291016 C 4.204999923706055 34.560001373291016 23.924999237060547 25.979999542236328 23.924999237060547 25.979999542236328 z" stroke-linecap="round" />
</g>
		<g transform="matrix(1 0 0 1 -61.75 97.95)" clip-path="url(#CLIPPATH_35)"  >
<clipPath id="CLIPPATH_35" >
	<rect transform="matrix(1 0 0 1 61.75 -97.95)" id="__lottie_element_5" x="-200" y="-200" rx="0" ry="0" width="400" height="400" />
</clipPath>
<path style="stroke: none; stroke-width: 1; stroke-dasharray: none; stroke-linecap: butt; stroke-dashoffset: 0; stroke-linejoin: miter; stroke-miterlimit: 4; fill: rgb(83,47,66); fill-rule: nonzero; opacity: 1;" vector-effect="non-scaling-stroke"  transform=" translate(-0.03, 0)" d="M 54.584999084472656 -12.018614768981934 C 54.584999084472656 -12.018614768981934 2.424999952316284 16.926000595092773 2.424999952316284 16.926000595092773 C 2.424999952316284 16.926000595092773 -54.5310173034668 -15.653421401977539 -54.5310173034668 -15.653421401977539 C -54.5310173034668 -15.653421401977539 6.284999847412109 -16.926000595092773 6.284999847412109 -16.926000595092773 C 6.284999847412109 -16.926000595092773 54.584999084472656 -12.018614768981934 54.584999084472656 -12.018614768981934 z" stroke-linecap="round" />
</g>
		<g transform="matrix(1 0 0 1 -84.69 152.69)" clip-path="url(#CLIPPATH_36)"  >
<clipPath id="CLIPPATH_36" >
	<rect transform="matrix(1 0 0 1 84.69 -152.69)" id="__lottie_element_5" x="-200" y="-200" rx="0" ry="0" width="400" height="400" />
</clipPath>
<path style="stroke: none; stroke-width: 1; stroke-dasharray: none; stroke-linecap: butt; stroke-dashoffset: 0; stroke-linejoin: miter; stroke-miterlimit: 4; fill: rgb(115,77,95); fill-rule: nonzero; opacity: 1;" vector-effect="non-scaling-stroke"  transform=" translate(0, 0)" d="M -20.760000228881836 -16.440000534057617 C -20.760000228881836 -16.440000534057617 20.760000228881836 -11.100000381469727 20.760000228881836 -11.100000381469727 C 20.760000228881836 -11.100000381469727 16.739999771118164 12.359999656677246 16.739999771118164 12.359999656677246 C 16.739999771118164 12.359999656677246 1.0399999618530273 16.440000534057617 1.0399999618530273 16.440000534057617 C 1.0399999618530273 16.440000534057617 -14.5 15.239999771118164 -14.5 15.239999771118164 C -14.5 15.239999771118164 -20.760000228881836 -16.440000534057617 -20.760000228881836 -16.440000534057617 z" stroke-linecap="round" />
</g>
		<g transform="matrix(1 0 0 1 -44.73 170.02)" clip-path="url(#CLIPPATH_37)"  >
<clipPath id="CLIPPATH_37" >
	<rect transform="matrix(1 0 0 1 44.73 -170.02)" id="__lottie_element_5" x="-200" y="-200" rx="0" ry="0" width="400" height="400" />
</clipPath>
<path style="stroke: none; stroke-width: 1; stroke-dasharray: none; stroke-linecap: butt; stroke-dashoffset: 0; stroke-linejoin: miter; stroke-miterlimit: 4; fill: rgb(120,93,135); fill-rule: nonzero; opacity: 1;" vector-effect="non-scaling-stroke"  transform=" translate(0, 0)" d="M -24.139999389648438 8.244000434875488 C -24.139999389648438 8.244000434875488 -4.320000171661377 10.034000396728516 -4.320000171661377 10.034000396728516 C -4.320000171661377 10.034000396728516 24.139999389648438 8.244000434875488 24.139999389648438 8.244000434875488 C 24.139999389648438 8.244000434875488 0.20000000298023224 -10.03499984741211 0.20000000298023224 -10.03499984741211 C 0.20000000298023224 -10.03499984741211 -23.219999313354492 -4.97599983215332 -23.219999313354492 -4.97599983215332 C -23.219999313354492 -4.97599983215332 -24.139999389648438 8.244000434875488 -24.139999389648438 8.244000434875488 z" stroke-linecap="round" />
</g>
		<g transform="matrix(1 0 0 1 -44.73 181.67)" clip-path="url(#CLIPPATH_38)"  >
<clipPath id="CLIPPATH_38" >
	<rect transform="matrix(1 0 0 1 44.73 -181.67)" id="__lottie_element_5" x="-200" y="-200" rx="0" ry="0" width="400" height="400" />
</clipPath>
<path style="stroke: none; stroke-width: 1; stroke-dasharray: none; stroke-linecap: butt; stroke-dashoffset: 0; stroke-linejoin: miter; stroke-miterlimit: 4; fill: rgb(88,65,100); fill-rule: nonzero; opacity: 1;" vector-effect="non-scaling-stroke"  transform=" translate(0, 0)" d="M -24.139999389648438 -3.4010000228881836 C -24.139999389648438 -3.4010000228881836 24.139999389648438 -3.4010000228881836 24.139999389648438 -3.4010000228881836 C 24.139999389648438 -3.4010000228881836 24.139999389648438 3.4010000228881836 24.139999389648438 3.4010000228881836 C 24.139999389648438 3.4010000228881836 -24.139999389648438 3.4010000228881836 -24.139999389648438 3.4010000228881836 C -24.139999389648438 3.4010000228881836 -24.139999389648438 -3.4010000228881836 -24.139999389648438 -3.4010000228881836 z" stroke-linecap="round" />
</g>
		<g transform="matrix(1 0 0 1 -80.46 176.11)" clip-path="url(#CLIPPATH_39)"  >
<clipPath id="CLIPPATH_39" >
	<rect transform="matrix(1 0 0 1 80.46 -176.11)" id="__lottie_element_5" x="-200" y="-200" rx="0" ry="0" width="400" height="400" />
</clipPath>
<path style="stroke: none; stroke-width: 1; stroke-dasharray: none; stroke-linecap: butt; stroke-dashoffset: 0; stroke-linejoin: miter; stroke-miterlimit: 4; fill: rgb(144,117,159); fill-rule: nonzero; opacity: 1;" vector-effect="non-scaling-stroke"  transform=" translate(0, 0)" d="M 12.515000343322754 -11.055000305175781 C 12.515000343322754 -11.055000305175781 21.704999923706055 8.975000381469727 21.704999923706055 8.975000381469727 C 21.704999923706055 8.975000381469727 -0.004999999888241291 11.055000305175781 -0.004999999888241291 11.055000305175781 C -0.004999999888241291 11.055000305175781 -21.704999923706055 8.975000381469727 -21.704999923706055 8.975000381469727 C -21.704999923706055 8.975000381469727 -18.725000381469727 -8.175000190734863 -18.725000381469727 -8.175000190734863 C -18.725000381469727 -8.175000190734863 12.515000343322754 -11.055000305175781 12.515000343322754 -11.055000305175781 z" stroke-linecap="round" />
</g>
		<g transform="matrix(1 0 0 1 -80.46 188.48)" clip-path="url(#CLIPPATH_40)"  >
<clipPath id="CLIPPATH_40" >
	<rect transform="matrix(1 0 0 1 80.46 -188.48)" id="__lottie_element_5" x="-200" y="-200" rx="0" ry="0" width="400" height="400" />
</clipPath>
<path style="stroke: none; stroke-width: 1; stroke-dasharray: none; stroke-linecap: butt; stroke-dashoffset: 0; stroke-linejoin: miter; stroke-miterlimit: 4; fill: rgb(88,65,100); fill-rule: nonzero; opacity: 1;" vector-effect="non-scaling-stroke"  transform=" translate(0, 0)" d="M -21.704999923706055 -3.4000000953674316 C -21.704999923706055 -3.4000000953674316 21.704999923706055 -3.4000000953674316 21.704999923706055 -3.4000000953674316 C 21.704999923706055 -3.4000000953674316 21.704999923706055 3.4000000953674316 21.704999923706055 3.4000000953674316 C 21.704999923706055 3.4000000953674316 -21.704999923706055 3.4000000953674316 -21.704999923706055 3.4000000953674316 C -21.704999923706055 3.4000000953674316 -21.704999923706055 -3.4000000953674316 -21.704999923706055 -3.4000000953674316 z" stroke-linecap="round" />
</g>
		<g transform="matrix(1 -0.03 0.03 1 -81.83 -4.85)" clip-path="url(#CLIPPATH_41)"  >
<clipPath id="CLIPPATH_41" >
	<rect transform="matrix(1 0.03 -0.03 1 81.66 7.12)" id="__lottie_element_5" x="-200" y="-200" rx="0" ry="0" width="400" height="400" />
</clipPath>
<path style="stroke: none; stroke-width: 1; stroke-dasharray: none; stroke-linecap: butt; stroke-dashoffset: 0; stroke-linejoin: miter; stroke-miterlimit: 4; fill: rgb(179,136,157); fill-rule: nonzero; opacity: 1;" vector-effect="non-scaling-stroke"  transform=" translate(-120.5, -194.5)" d="M 130.5 154 C 130.5 154 89 175.5 89 175.5 C 89 175.5 109.5 235 109.5 235 C 109.5 235 152 179 152 179 C 152 179 130.5 154 130.5 154 z" stroke-linecap="round" />
</g>
		<g transform="matrix(1 -0.03 0.03 1 -127.56 18.13)" clip-path="url(#CLIPPATH_42)"  >
<clipPath id="CLIPPATH_42" >
	<rect transform="matrix(1 0.03 -0.03 1 128.11 -13.67)" id="__lottie_element_5" x="-200" y="-200" rx="0" ry="0" width="400" height="400" />
</clipPath>
<path style="stroke: none; stroke-width: 1; stroke-dasharray: none; stroke-linecap: butt; stroke-dashoffset: 0; stroke-linejoin: miter; stroke-miterlimit: 4; fill: rgb(115,77,95); fill-rule: nonzero; opacity: 1;" vector-effect="non-scaling-stroke"  transform=" translate(0, -0.21)" d="M 13.234121322631836 42.817169189453125 C 13.234121322631836 42.817169189453125 15.335262298583984 31.876739501953125 15.335262298583984 31.876739501953125 C 15.335262298583984 31.876739501953125 21.084999084472656 -28.989999771118164 21.084999084472656 -28.989999771118164 C 21.084999084472656 -28.989999771118164 -1.9249999523162842 -42.400001525878906 -1.9249999523162842 -42.400001525878906 C -1.9249999523162842 -42.400001525878906 -21.084999084472656 9.069999694824219 -21.084999084472656 9.069999694824219 C -21.084999084472656 9.069999694824219 13.234121322631836 42.817169189453125 13.234121322631836 42.817169189453125 z" stroke-linecap="round" />
</g>
		<g transform="matrix(1 -0.03 0.03 1 -127.83 48.54)" clip-path="url(#CLIPPATH_43)"  >
<clipPath id="CLIPPATH_43" >
	<rect transform="matrix(1 0.03 -0.03 1 129.44 -44.05)" id="__lottie_element_5" x="-200" y="-200" rx="0" ry="0" width="400" height="400" />
</clipPath>
<path style="stroke: none; stroke-width: 1; stroke-dasharray: none; stroke-linecap: butt; stroke-dashoffset: 0; stroke-linejoin: miter; stroke-miterlimit: 4; fill: rgb(83,47,66); fill-rule: nonzero; opacity: 1;" vector-effect="non-scaling-stroke"  transform=" translate(-0.64, -1.2)" d="M -19.114999771118164 -20.315000534057617 C -19.114999771118164 -20.315000534057617 17.063556671142578 -21.2143497467041 17.063556671142578 -21.2143497467041 C 17.063556671142578 -21.2143497467041 20.393285751342773 -0.19356320798397064 20.393285751342773 -0.19356320798397064 C 20.393285751342773 -0.19356320798397064 14.54931354522705 23.618045806884766 14.54931354522705 23.618045806884766 C 14.54931354522705 23.618045806884766 -19.114999771118164 -20.315000534057617 -19.114999771118164 -20.315000534057617 z" stroke-linecap="round" />
</g>
		<g transform="matrix(1 -0.03 0.03 1 -63.67 17.85)" clip-path="url(#CLIPPATH_44)"  >
<clipPath id="CLIPPATH_44" >
	<rect transform="matrix(1 0.03 -0.03 1 64.14 -16.08)" id="__lottie_element_5" x="-200" y="-200" rx="0" ry="0" width="400" height="400" />
</clipPath>
<path style="stroke: none; stroke-width: 1; stroke-dasharray: none; stroke-linecap: butt; stroke-dashoffset: 0; stroke-linejoin: miter; stroke-miterlimit: 4; fill: rgb(149,98,123); fill-rule: nonzero; opacity: 1;" vector-effect="non-scaling-stroke"  transform=" translate(-0.04, 0)" d="M 5.695000171661377 -21.9950008392334 C 5.695000171661377 -21.9950008392334 25.135000228881836 -50.03499984741211 25.135000228881836 -50.03499984741211 C 25.135000228881836 -50.03499984741211 47.70500183105469 -42.845001220703125 47.70500183105469 -42.845001220703125 C 47.70500183105469 -42.845001220703125 53.77949523925781 49.02488708496094 53.77949523925781 49.02488708496094 C 53.77949523925781 49.02488708496094 -1.9249999523162842 54.67499923706055 -1.9249999523162842 54.67499923706055 C -1.9249999523162842 54.67499923706055 -53.70500183105469 49.01499938964844 -53.70500183105469 49.01499938964844 C -53.70500183105469 49.01499938964844 -47.375 -29.264999389648438 -47.375 -29.264999389648438 C -47.375 -29.264999389648438 -35.45500183105469 -38.71500015258789 -35.45500183105469 -38.71500015258789 C -35.45500183105469 -38.71500015258789 -29.69499969482422 -54.67499923706055 -29.69499969482422 -54.67499923706055 C -29.69499969482422 -54.67499923706055 5.695000171661377 -21.9950008392334 5.695000171661377 -21.9950008392334 z" stroke-linecap="round" />
</g>
		<g transform="matrix(1 -0.03 0.03 1 -60.08 31.42)" clip-path="url(#CLIPPATH_45)"  >
<clipPath id="CLIPPATH_45" >
	<rect transform="matrix(1 0.03 -0.03 1 60.92 -29.74)" id="__lottie_element_5" x="-200" y="-200" rx="0" ry="0" width="400" height="400" />
</clipPath>
<path style="stroke: none; stroke-width: 1; stroke-dasharray: none; stroke-linecap: butt; stroke-dashoffset: 0; stroke-linejoin: miter; stroke-miterlimit: 4; fill: rgb(115,77,95); fill-rule: nonzero; opacity: 1;" vector-effect="non-scaling-stroke"  transform=" translate(0, -0.24)" d="M 24.860000610351562 5.53000020980835 C 24.860000610351562 5.53000020980835 30.976760864257812 35.9004020690918 30.976760864257812 35.9004020690918 C 30.976760864257812 35.9004020690918 -30.979999542236328 35.41999816894531 -30.979999542236328 35.41999816894531 C -30.979999542236328 35.41999816894531 -25.549999237060547 13.539999961853027 -25.549999237060547 13.539999961853027 C -25.549999237060547 13.539999961853027 -13.34000015258789 -20.75 -13.34000015258789 -20.75 C -13.34000015258789 -20.75 2.440000057220459 -35.41999816894531 2.440000057220459 -35.41999816894531 C 2.440000057220459 -35.41999816894531 16.1200008392334 -20.75 16.1200008392334 -20.75 C 16.1200008392334 -20.75 24.860000610351562 5.53000020980835 24.860000610351562 5.53000020980835 z" stroke-linecap="round" />
</g>
		<g transform="matrix(1 -0.03 0.03 1 -47.19 3.8)" clip-path="url(#CLIPPATH_46)"  >
<clipPath id="CLIPPATH_46" >
	<rect transform="matrix(1 0.03 -0.03 1 47.27 -2.49)" id="__lottie_element_5" x="-200" y="-200" rx="0" ry="0" width="400" height="400" />
</clipPath>
<path style="stroke: none; stroke-width: 1; stroke-dasharray: none; stroke-linecap: butt; stroke-dashoffset: 0; stroke-linejoin: miter; stroke-miterlimit: 4; fill: rgb(179,135,157); fill-rule: nonzero; opacity: 1;" vector-effect="non-scaling-stroke"  transform=" translate(0, 0)" d="M -11.210000038146973 -8.404999732971191 C -11.210000038146973 -8.404999732971191 11.210000038146973 32.54499816894531 11.210000038146973 32.54499816894531 C 11.210000038146973 32.54499816894531 10.010000228881836 -32.54499816894531 10.010000228881836 -32.54499816894531 C 10.010000228881836 -32.54499816894531 -11.210000038146973 -8.404999732971191 -11.210000038146973 -8.404999732971191 z" stroke-linecap="round" />
</g>
		<g transform="matrix(1 -0.05 0.05 1 -57.56 26.14)" clip-path="url(#CLIPPATH_47)"  >
<clipPath id="CLIPPATH_47" >
	<rect transform="matrix(1 0.05 -0.05 1 58.88 -23.01)" id="__lottie_element_5" x="-200" y="-200" rx="0" ry="0" width="400" height="400" />
</clipPath>
<path style="stroke: none; stroke-width: 1; stroke-dasharray: none; stroke-linecap: butt; stroke-dashoffset: 0; stroke-linejoin: miter; stroke-miterlimit: 4; fill: rgb(179,135,157); fill-rule: nonzero; opacity: 1;" vector-effect="non-scaling-stroke"  transform=" translate(0, 0)" d="M 2.3350000381469727 -6.175000190734863 C 2.3350000381469727 -6.175000190734863 6.34499979019165 1.1649999618530273 6.34499979019165 1.1649999618530273 C 6.34499979019165 1.1649999618530273 -1.0049999952316284 6.175000190734863 -1.0049999952316284 6.175000190734863 C -1.0049999952316284 6.175000190734863 -6.34499979019165 -1.5049999952316284 -6.34499979019165 -1.5049999952316284 C -6.34499979019165 -1.5049999952316284 2.3350000381469727 -6.175000190734863 2.3350000381469727 -6.175000190734863 z" stroke-linecap="round" />
</g>
		<g transform="matrix(1 -0.05 0.05 1 -55.68 48.6)" clip-path="url(#CLIPPATH_48)"  >
<clipPath id="CLIPPATH_48" >
	<rect transform="matrix(1 0.05 -0.05 1 58.21 -45.55)" id="__lottie_element_5" x="-200" y="-200" rx="0" ry="0" width="400" height="400" />
</clipPath>
<path style="stroke: none; stroke-width: 1; stroke-dasharray: none; stroke-linecap: butt; stroke-dashoffset: 0; stroke-linejoin: miter; stroke-miterlimit: 4; fill: rgb(179,135,157); fill-rule: nonzero; opacity: 1;" vector-effect="non-scaling-stroke"  transform=" translate(0, 0)" d="M 1.3350000381469727 -6.010000228881836 C 1.3350000381469727 -6.010000228881836 -6.005000114440918 -1.340000033378601 -6.005000114440918 -1.340000033378601 C -6.005000114440918 -1.340000033378601 -0.33500000834465027 6.010000228881836 -0.33500000834465027 6.010000228881836 C -0.33500000834465027 6.010000228881836 6.005000114440918 1.3300000429153442 6.005000114440918 1.3300000429153442 C 6.005000114440918 1.3300000429153442 1.3350000381469727 -6.010000228881836 1.3350000381469727 -6.010000228881836 z" stroke-linecap="round" />
</g>
		<g transform="matrix(1 -0.02 0.02 1 -61.84 76.67)" clip-path="url(#CLIPPATH_49)"  >
<clipPath id="CLIPPATH_49" >
	<rect transform="matrix(1 0.02 -0.02 1 63.42 -75.37)" id="__lottie_element_5" x="-200" y="-200" rx="0" ry="0" width="400" height="400" />
</clipPath>
<path style="stroke: none; stroke-width: 1; stroke-dasharray: none; stroke-linecap: butt; stroke-dashoffset: 0; stroke-linejoin: miter; stroke-miterlimit: 4; fill: rgb(88,65,100); fill-rule: nonzero; opacity: 1;" vector-effect="non-scaling-stroke"  transform=" translate(0, 0)" d="M -53.94499969482422 -9.835000038146973 C -53.94499969482422 -9.835000038146973 -8.96500015258789 -10.125 -8.96500015258789 -10.125 C -8.96500015258789 -10.125 6.175000190734863 -6.324999809265137 6.175000190734863 -6.324999809265137 C 6.175000190734863 -6.324999809265137 21.524999618530273 -10.314000129699707 21.524999618530273 -10.314000129699707 C 21.524999618530273 -10.314000129699707 53.46500015258789 -10.515000343322754 53.46500015258789 -10.515000343322754 C 53.46500015258789 -10.515000343322754 54.584999084472656 10.515000343322754 54.584999084472656 10.515000343322754 C 54.584999084472656 10.515000343322754 20.485000610351562 8.635000228881836 20.485000610351562 8.635000228881836 C 20.485000610351562 8.635000228881836 9.085000038146973 6.385000228881836 9.085000038146973 6.385000228881836 C 9.085000038146973 6.385000228881836 -8.854999542236328 7.025000095367432 -8.854999542236328 7.025000095367432 C -8.854999542236328 7.025000095367432 -54.584999084472656 4.505000114440918 -54.584999084472656 4.505000114440918 C -54.584999084472656 4.505000114440918 -53.94499969482422 -9.835000038146973 -53.94499969482422 -9.835000038146973 z" stroke-linecap="round" />
</g>
		<g transform="matrix(1 -0.02 0.02 1 -54.88 75.75)" clip-path="url(#CLIPPATH_50)"  >
<clipPath id="CLIPPATH_50" >
	<rect transform="matrix(1 0.02 -0.02 1 56.44 -74.59)" id="__lottie_element_5" x="-200" y="-200" rx="0" ry="0" width="400" height="400" />
</clipPath>
<path style="stroke: none; stroke-width: 1; stroke-dasharray: none; stroke-linecap: butt; stroke-dashoffset: 0; stroke-linejoin: miter; stroke-miterlimit: 4; fill: rgb(179,135,157); fill-rule: nonzero; opacity: 1;" vector-effect="non-scaling-stroke"  transform=" translate(0, 0)" d="M 15.244999885559082 -9.475000381469727 C 15.244999885559082 -9.475000381469727 -15.244999885559082 -9.28600025177002 -15.244999885559082 -9.28600025177002 C -15.244999885559082 -9.28600025177002 -15.135000228881836 7.864999771118164 -15.135000228881836 7.864999771118164 C -15.135000228881836 7.864999771118164 14.204999923706055 9.473999977111816 14.204999923706055 9.473999977111816 C 14.204999923706055 9.473999977111816 15.204999923706055 -9.475000381469727 15.204999923706055 -9.475000381469727 C 15.204999923706055 -9.475000381469727 15.244999885559082 -9.475000381469727 15.244999885559082 -9.475000381469727 z M 7.574999809265137 3.3440001010894775 C 7.574999809265137 3.3440001010894775 -8.78499984741211 3.3440001010894775 -8.78499984741211 3.3440001010894775 C -8.78499984741211 3.3440001010894775 -8.444999694824219 -3.3359999656677246 -8.444999694824219 -3.3359999656677246 C -8.444999694824219 -3.3359999656677246 7.914999961853027 -4.00600004196167 7.914999961853027 -4.00600004196167 C 7.914999961853027 -4.00600004196167 7.574999809265137 3.3440001010894775 7.574999809265137 3.3440001010894775 z" stroke-linecap="round" />
</g>
		<g transform="matrix(1 -0.03 0.03 1 -37.06 -16.97)" clip-path="url(#CLIPPATH_51)"  >
<clipPath id="CLIPPATH_51" >
	<rect transform="matrix(1 0.03 -0.03 1 36.58 17.99)" id="__lottie_element_5" x="-200" y="-200" rx="0" ry="0" width="400" height="400" />
</clipPath>
<path style="stroke: none; stroke-width: 1; stroke-dasharray: none; stroke-linecap: butt; stroke-dashoffset: 0; stroke-linejoin: miter; stroke-miterlimit: 4; fill: rgb(0,0,0); fill-rule: nonzero; opacity: 0.1;" vector-effect="non-scaling-stroke"  transform=" translate(-0.32, 0)" d="M -21.59000015258789 12.069999694824219 C -21.59000015258789 12.069999694824219 22.22300148010254 -4.56519079208374 22.22300148010254 -4.56519079208374 C 22.22300148010254 -4.56519079208374 -0.3700000047683716 -12.069999694824219 -0.3700000047683716 -12.069999694824219 C -0.3700000047683716 -12.069999694824219 -21.59000015258789 12.069999694824219 -21.59000015258789 12.069999694824219 z" stroke-linecap="round" />
</g>
		<g transform="matrix(1 -0.1 0.1 1 -19.39 -22.88)" clip-path="url(#CLIPPATH_52)"  >
<clipPath id="CLIPPATH_52" >
	<rect transform="matrix(1 0.1 -0.1 1 17.12 24.62)" id="__lottie_element_5" x="-200" y="-200" rx="0" ry="0" width="400" height="400" />
</clipPath>
<path style="stroke: none; stroke-width: 1; stroke-dasharray: none; stroke-linecap: butt; stroke-dashoffset: 0; stroke-linejoin: miter; stroke-miterlimit: 4; fill: rgb(88,65,100); fill-rule: nonzero; opacity: 1;" vector-effect="non-scaling-stroke"  transform=" translate(0, 0)" d="M -17.649999618530273 6 C -17.649999618530273 6 18.020000457763672 7.889999866485596 18.020000457763672 7.889999866485596 C 18.020000457763672 7.889999866485596 14.640000343322754 -3.569999933242798 14.640000343322754 -3.569999933242798 C 14.640000343322754 -3.569999933242798 -18.020000457763672 -7.889999866485596 -18.020000457763672 -7.889999866485596 C -18.020000457763672 -7.889999866485596 -17.649999618530273 6 -17.649999618530273 6 z" stroke-linecap="round" />
</g>
		<g transform="matrix(1 -0.03 0.03 1 -104.99 -21.98)" clip-path="url(#CLIPPATH_53)"  >
<clipPath id="CLIPPATH_53" >
	<rect transform="matrix(1 0.03 -0.03 1 104.34 24.88)" id="__lottie_element_5" x="-200" y="-200" rx="0" ry="0" width="400" height="400" />
</clipPath>
<path style="stroke: none; stroke-width: 1; stroke-dasharray: none; stroke-linecap: butt; stroke-dashoffset: 0; stroke-linejoin: miter; stroke-miterlimit: 4; fill: rgb(88,65,100); fill-rule: nonzero; opacity: 1;" vector-effect="non-scaling-stroke"  transform=" translate(0, 0)" d="M 25.864999771118164 0.5049999952316284 C 25.864999771118164 0.5049999952316284 -16.514999389648438 14.845000267028809 -16.514999389648438 14.845000267028809 C -16.514999389648438 14.845000267028809 -25.864999771118164 -3.184999942779541 -25.864999771118164 -3.184999942779541 C -25.864999771118164 -3.184999942779541 -9.487000465393066 -7.991000175476074 -9.487000465393066 -7.991000175476074 C -9.487000465393066 -7.991000175476074 13.875 -14.845000267028809 13.875 -14.845000267028809 C 13.875 -14.845000267028809 25.864999771118164 0.5049999952316284 25.864999771118164 0.5049999952316284 z" stroke-linecap="round" />
</g>
		<g transform="matrix(1 -0.03 0.03 1 -74.4 3.72)" clip-path="url(#CLIPPATH_54)"  >
<clipPath id="CLIPPATH_54" >
	<rect transform="matrix(1 0.03 -0.03 1 74.47 -1.66)" id="__lottie_element_5" x="-200" y="-200" rx="0" ry="0" width="400" height="400" />
</clipPath>
<path style="stroke: none; stroke-width: 1; stroke-dasharray: none; stroke-linecap: butt; stroke-dashoffset: 0; stroke-linejoin: miter; stroke-miterlimit: 4; fill: rgb(179,135,157); fill-rule: nonzero; opacity: 1;" vector-effect="non-scaling-stroke"  transform=" translate(0, 0)" d="M -15.989999771118164 -41.3849983215332 C -15.989999771118164 -41.3849983215332 -12 41.3849983215332 -12 41.3849983215332 C -12 41.3849983215332 15.989999771118164 -7.574999809265137 15.989999771118164 -7.574999809265137 C 15.989999771118164 -7.574999809265137 12.541999816894531 -11.220000267028809 12.541999816894531 -11.220000267028809 C 12.541999816894531 -11.220000267028809 -14.89900016784668 -40.23099899291992 -14.89900016784668 -40.23099899291992 C -14.89900016784668 -40.23099899291992 -15.989999771118164 -41.3849983215332 -15.989999771118164 -41.3849983215332 z" stroke-linecap="round" />
</g>
		<g transform="matrix(1 0.04 -0.04 1 -93.39 -77.19)" clip-path="url(#CLIPPATH_55)"  >
<clipPath id="CLIPPATH_55" >
	<rect transform="matrix(1 -0.04 0.04 1 96.42 73.37)" id="__lottie_element_5" x="-200" y="-200" rx="0" ry="0" width="400" height="400" />
</clipPath>
<path style="stroke: none; stroke-width: 1; stroke-dasharray: none; stroke-linecap: butt; stroke-dashoffset: 0; stroke-linejoin: miter; stroke-miterlimit: 4; fill: rgb(88,65,100); fill-rule: nonzero; opacity: 1;" vector-effect="non-scaling-stroke"  transform=" translate(0, 0)" d="M -8.635000228881836 -10.545000076293945 C -8.635000228881836 -10.545000076293945 2.3550000190734863 -13.494999885559082 2.3550000190734863 -13.494999885559082 C 2.3550000190734863 -13.494999885559082 20.155000686645508 -0.004999999888241291 20.155000686645508 -0.004999999888241291 C 20.155000686645508 -0.004999999888241291 8.845000267028809 10.645000457763672 8.845000267028809 10.645000457763672 C 8.845000267028809 10.645000457763672 -20.155000686645508 13.494999885559082 -20.155000686645508 13.494999885559082 C -20.155000686645508 13.494999885559082 -8.635000228881836 -10.545000076293945 -8.635000228881836 -10.545000076293945 z" stroke-linecap="round" />
</g>
		<g transform="matrix(1 0.04 -0.04 1 -21.71 -80.14)" clip-path="url(#CLIPPATH_56)"  >
<clipPath id="CLIPPATH_56" >
	<rect transform="matrix(1 -0.04 0.04 1 24.91 79.2)" id="__lottie_element_5" x="-200" y="-200" rx="0" ry="0" width="400" height="400" />
</clipPath>
<path style="stroke: none; stroke-width: 1; stroke-dasharray: none; stroke-linecap: butt; stroke-dashoffset: 0; stroke-linejoin: miter; stroke-miterlimit: 4; fill: rgb(223,188,164); fill-rule: nonzero; opacity: 1;" vector-effect="non-scaling-stroke"  transform=" translate(0, 0)" d="M 58.0099983215332 -45.57500076293945 C 58.0099983215332 -45.57500076293945 52.520999908447266 -19.44499969482422 52.520999908447266 -19.44499969482422 C 52.520999908447266 -19.44499969482422 27.570999145507812 60.53499984741211 27.570999145507812 60.53499984741211 C 27.570999145507812 60.53499984741211 -14.494180679321289 53.37518310546875 -14.494180679321289 53.37518310546875 C -14.494180679321289 53.37518310546875 -33.659000396728516 77.55500030517578 -33.659000396728516 77.55500030517578 C -33.659000396728516 77.55500030517578 -58.0099983215332 37.60499954223633 -58.0099983215332 37.60499954223633 C -58.0099983215332 37.60499954223633 -47.47999954223633 -5.715000152587891 -47.47999954223633 -5.715000152587891 C -47.47999954223633 -5.715000152587891 -40.409000396728516 -8.6850004196167 -40.409000396728516 -8.6850004196167 C -40.409000396728516 -8.6850004196167 -36.3489990234375 -29.174999237060547 -36.3489990234375 -29.174999237060547 C -36.3489990234375 -29.174999237060547 -37.84000015258789 -60.04499816894531 -37.84000015258789 -60.04499816894531 C -37.84000015258789 -60.04499816894531 -3.190000057220459 -77.55500030517578 -3.190000057220459 -77.55500030517578 C -3.190000057220459 -77.55500030517578 29.60099983215332 -58.595001220703125 29.60099983215332 -58.595001220703125 C 29.60099983215332 -58.595001220703125 36.43000030517578 -76.2750015258789 36.43000030517578 -76.2750015258789 C 36.43000030517578 -76.2750015258789 58.0099983215332 -45.57500076293945 58.0099983215332 -45.57500076293945 z" stroke-linecap="round" />
</g>
		<g transform="matrix(1 0.04 -0.04 1 -66.09 -72.91)" clip-path="url(#CLIPPATH_57)"  >
<clipPath id="CLIPPATH_57" >
	<rect transform="matrix(1 -0.04 0.04 1 68.97 70.19)" id="__lottie_element_5" x="-200" y="-200" rx="0" ry="0" width="400" height="400" />
</clipPath>
<path style="stroke: none; stroke-width: 1; stroke-dasharray: none; stroke-linecap: butt; stroke-dashoffset: 0; stroke-linejoin: miter; stroke-miterlimit: 4; fill: rgb(195,151,122); fill-rule: nonzero; opacity: 1;" vector-effect="non-scaling-stroke"  transform=" translate(0, 0)" d="M 7.480000019073486 -68.55000305175781 C 7.480000019073486 -68.55000305175781 27.440000534057617 -30.469999313354492 27.440000534057617 -30.469999313354492 C 27.440000534057617 -30.469999313354492 22.809999465942383 46.08000183105469 22.809999465942383 46.08000183105469 C 22.809999465942383 46.08000183105469 10.399999618530273 68.55000305175781 10.399999618530273 68.55000305175781 C 10.399999618530273 68.55000305175781 -23.659360885620117 37.04656219482422 -23.659360885620117 37.04656219482422 C -23.659360885620117 37.04656219482422 -18.600000381469727 7.46999979019165 -18.600000381469727 7.46999979019165 C -18.600000381469727 7.46999979019165 -15.930000305175781 1.600000023841858 -15.930000305175781 1.600000023841858 C -15.930000305175781 1.600000023841858 -15.960000038146973 -4.260000228881836 -15.960000038146973 -4.260000228881836 C -15.960000038146973 -4.260000228881836 -27.440000534057617 -5.800000190734863 -27.440000534057617 -5.800000190734863 C -27.440000534057617 -5.800000190734863 -27.260000228881836 -32.66999816894531 -27.260000228881836 -32.66999816894531 C -27.260000228881836 -32.66999816894531 -9.880000114440918 -32.7400016784668 -9.880000114440918 -32.7400016784668 C -9.880000114440918 -32.7400016784668 -3.4200000762939453 -17.229999542236328 -3.4200000762939453 -17.229999542236328 C -3.4200000762939453 -17.229999542236328 2.1500000953674316 -16.690000534057617 2.1500000953674316 -16.690000534057617 C 2.1500000953674316 -16.690000534057617 6.710000038146973 -37.93000030517578 6.710000038146973 -37.93000030517578 C 6.710000038146973 -37.93000030517578 7.480000019073486 -68.55000305175781 7.480000019073486 -68.55000305175781 z" stroke-linecap="round" />
</g>
		<g transform="matrix(1 0.04 -0.04 1 -82.46 -91.79)" clip-path="url(#CLIPPATH_58)"  >
<clipPath id="CLIPPATH_58" >
	<rect transform="matrix(1 -0.04 0.04 1 86.08 88.4)" id="__lottie_element_5" x="-200" y="-200" rx="0" ry="0" width="400" height="400" />
</clipPath>
<path style="stroke: none; stroke-width: 1; stroke-dasharray: none; stroke-linecap: butt; stroke-dashoffset: 0; stroke-linejoin: miter; stroke-miterlimit: 4; fill: rgb(138,102,81); fill-rule: nonzero; opacity: 1;" vector-effect="non-scaling-stroke"  transform=" translate(0, 0)" d="M -5.449999809265137 -8.78499984741211 C -5.449999809265137 -8.78499984741211 3.319999933242798 -8.53499984741211 3.319999933242798 -8.53499984741211 C 3.319999933242798 -8.53499984741211 5.449999809265137 8.78499984741211 5.449999809265137 8.78499984741211 C 5.449999809265137 8.78499984741211 -5.449999809265137 -8.78499984741211 -5.449999809265137 -8.78499984741211 z" stroke-linecap="round" />
</g>
		<g transform="matrix(1 0.04 -0.04 1 -51.7 -18.33)" clip-path="url(#CLIPPATH_59)"  >
<clipPath id="CLIPPATH_59" >
	<rect transform="matrix(1 -0.04 0.04 1 52.4 16.23)" id="__lottie_element_5" x="-200" y="-200" rx="0" ry="0" width="400" height="400" />
</clipPath>
<path style="stroke: none; stroke-width: 1; stroke-dasharray: none; stroke-linecap: butt; stroke-dashoffset: 0; stroke-linejoin: miter; stroke-miterlimit: 4; fill: rgb(138,102,81); fill-rule: nonzero; opacity: 1;" vector-effect="non-scaling-stroke"  transform=" translate(0.96, 0)" d="M 12.1740140914917 -9.743824005126953 C 12.1740140914917 -9.743824005126953 -14.09000015258789 -14.59000015258789 -14.09000015258789 -14.59000015258789 C -14.09000015258789 -14.59000015258789 -7.130000114440918 14.59000015258789 -7.130000114440918 14.59000015258789 C -7.130000114440918 14.59000015258789 12.1740140914917 -9.743824005126953 12.1740140914917 -9.743824005126953 z" stroke-linecap="round" />
</g>
		<g transform="matrix(1 0.04 -0.04 1 -79.65 -71.85)" clip-path="url(#CLIPPATH_60)"  >
<clipPath id="CLIPPATH_60" >
	<rect transform="matrix(1 -0.04 0.04 1 82.47 68.59)" id="__lottie_element_5" x="-200" y="-200" rx="0" ry="0" width="400" height="400" />
</clipPath>
<path style="stroke: none; stroke-width: 1; stroke-dasharray: none; stroke-linecap: butt; stroke-dashoffset: 0; stroke-linejoin: miter; stroke-miterlimit: 4; fill: rgb(138,102,81); fill-rule: nonzero; opacity: 1;" vector-effect="non-scaling-stroke"  transform=" translate(0, 0)" d="M -2.4600000381469727 -5.864999771118164 C -2.4600000381469727 -5.864999771118164 5.099999904632568 -4.784999847412109 5.099999904632568 -4.784999847412109 C 5.099999904632568 -4.784999847412109 -5.099999904632568 5.864999771118164 -5.099999904632568 5.864999771118164 C -5.099999904632568 5.864999771118164 -2.4600000381469727 -5.864999771118164 -2.4600000381469727 -5.864999771118164 z" stroke-linecap="round" />
</g>
		<g transform="matrix(1 0.04 -0.04 1 44.91 -120.5)" clip-path="url(#CLIPPATH_61)"  >
<clipPath id="CLIPPATH_61" >
	<rect transform="matrix(1 -0.04 0.04 1 -40.03 122.2)" id="__lottie_element_5" x="-200" y="-200" rx="0" ry="0" width="400" height="400" />
</clipPath>
<path style="stroke: none; stroke-width: 1; stroke-dasharray: none; stroke-linecap: butt; stroke-dashoffset: 0; stroke-linejoin: miter; stroke-miterlimit: 4; fill: rgb(166,135,185); fill-rule: nonzero; opacity: 1;" vector-effect="non-scaling-stroke"  transform=" translate(0, 0)" d="M -8.940999984741211 -2.819999933242798 C -8.940999984741211 -2.819999933242798 -2.0810000896453857 -13.970000267028809 -2.0810000896453857 -13.970000267028809 C -2.0810000896453857 -13.970000267028809 12.418999671936035 -23.559999465942383 12.418999671936035 -23.559999465942383 C 12.418999671936035 -23.559999465942383 -12.420000076293945 23.559999465942383 -12.420000076293945 23.559999465942383 C -12.420000076293945 23.559999465942383 -8.940999984741211 -2.819999933242798 -8.940999984741211 -2.819999933242798 z" stroke-linecap="round" />
</g>
		<g transform="matrix(1 0.04 -0.04 1 -80.57 -137.64)" clip-path="url(#CLIPPATH_62)"  >
<clipPath id="CLIPPATH_62" >
	<rect transform="matrix(1 -0.04 0.04 1 86.04 134.29)" id="__lottie_element_5" x="-200" y="-200" rx="0" ry="0" width="400" height="400" />
</clipPath>
<path style="stroke: none; stroke-width: 1; stroke-dasharray: none; stroke-linecap: butt; stroke-dashoffset: 0; stroke-linejoin: miter; stroke-miterlimit: 4; fill: rgb(144,117,159); fill-rule: nonzero; opacity: 1;" vector-effect="non-scaling-stroke"  transform=" translate(0, 0)" d="M 24.545000076293945 -4.454999923706055 C 24.545000076293945 -4.454999923706055 4.264999866485596 -16.344999313354492 4.264999866485596 -16.344999313354492 C 4.264999866485596 -16.344999313354492 -28.78499984741211 -26.4950008392334 -28.78499984741211 -26.4950008392334 C -28.78499984741211 -26.4950008392334 -22.565000534057617 22.405000686645508 -22.565000534057617 22.405000686645508 C -22.565000534057617 22.405000686645508 5.59499979019165 26.4950008392334 5.59499979019165 26.4950008392334 C 5.59499979019165 26.4950008392334 28.78499984741211 26.165000915527344 28.78499984741211 26.165000915527344 C 28.78499984741211 26.165000915527344 24.545000076293945 -4.454999923706055 24.545000076293945 -4.454999923706055 z" stroke-linecap="round" />
</g>
		<g transform="matrix(1 0.04 -0.04 1 26.31 -150.56)" clip-path="url(#CLIPPATH_63)"  >
<clipPath id="CLIPPATH_63" >
	<rect transform="matrix(1 -0.04 0.04 1 -20.24 151.5)" id="__lottie_element_5" x="-200" y="-200" rx="0" ry="0" width="400" height="400" />
</clipPath>
<path style="stroke: none; stroke-width: 1; stroke-dasharray: none; stroke-linecap: butt; stroke-dashoffset: 0; stroke-linejoin: miter; stroke-miterlimit: 4; fill: rgb(120,93,135); fill-rule: nonzero; opacity: 1;" vector-effect="non-scaling-stroke"  transform=" translate(0, 0)" d="M 10.850000381469727 26.475000381469727 C 10.850000381469727 26.475000381469727 -8.609999656677246 2.5450000762939453 -8.609999656677246 2.5450000762939453 C -8.609999656677246 2.5450000762939453 -20.270000457763672 -8.425000190734863 -20.270000457763672 -8.425000190734863 C -20.270000457763672 -8.425000190734863 -32.209999084472656 -26.475000381469727 -32.209999084472656 -26.475000381469727 C -32.209999084472656 -26.475000381469727 32.209999084472656 5.735000133514404 32.209999084472656 5.735000133514404 C 32.209999084472656 5.735000133514404 10.850000381469727 26.475000381469727 10.850000381469727 26.475000381469727 z" stroke-linecap="round" />
</g>
		<g transform="matrix(1 0.04 -0.04 1 -64.02 -161.64)" clip-path="url(#CLIPPATH_64)"  >
<clipPath id="CLIPPATH_64" >
	<rect transform="matrix(1 -0.04 0.04 1 70.46 158.93)" id="__lottie_element_5" x="-200" y="-200" rx="0" ry="0" width="400" height="400" />
</clipPath>
<path style="stroke: none; stroke-width: 1; stroke-dasharray: none; stroke-linecap: butt; stroke-dashoffset: 0; stroke-linejoin: miter; stroke-miterlimit: 4; fill: rgb(120,93,135); fill-rule: nonzero; opacity: 1;" vector-effect="non-scaling-stroke"  transform=" translate(0, 0)" d="M 8.970000267028809 20.190000534057617 C 8.970000267028809 20.190000534057617 44.36000061035156 7.440000057220459 44.36000061035156 7.440000057220459 C 44.36000061035156 7.440000057220459 23.989999771118164 -9.84000015258789 23.989999771118164 -9.84000015258789 C 23.989999771118164 -9.84000015258789 -2.569999933242798 -20.190000534057617 -2.569999933242798 -20.190000534057617 C -2.569999933242798 -20.190000534057617 -44.36000061035156 -1.850000023841858 -44.36000061035156 -1.850000023841858 C -44.36000061035156 -1.850000023841858 8.970000267028809 20.190000534057617 8.970000267028809 20.190000534057617 z" stroke-linecap="round" />
</g>
		<g transform="matrix(1 0.04 -0.04 1 -24.05 -165.91)" clip-path="url(#CLIPPATH_65)"  >
<clipPath id="CLIPPATH_65" >
	<rect transform="matrix(1 -0.04 0.04 1 30.7 164.81)" id="__lottie_element_5" x="-200" y="-200" rx="0" ry="0" width="400" height="400" />
</clipPath>
<path style="stroke: none; stroke-width: 1; stroke-dasharray: none; stroke-linecap: butt; stroke-dashoffset: 0; stroke-linejoin: miter; stroke-miterlimit: 4; fill: rgb(144,117,159); fill-rule: nonzero; opacity: 1;" vector-effect="non-scaling-stroke"  transform=" translate(0, 0)" d="M -20.009000778198242 -32.53499984741211 C -20.009000778198242 -32.53499984741211 -42.32899856567383 -14.314000129699707 -42.32899856567383 -14.314000129699707 C -42.32899856567383 -14.314000129699707 4.60099983215332 13.315999984741211 4.60099983215332 13.315999984741211 C 4.60099983215332 13.315999984741211 37.891998291015625 32.53499984741211 37.891998291015625 32.53499984741211 C 37.891998291015625 32.53499984741211 42.32899856567383 15.854999542236328 42.32899856567383 15.854999542236328 C 42.32899856567383 15.854999542236328 18.729999542236328 -13.163999557495117 18.729999542236328 -13.163999557495117 C 18.729999542236328 -13.163999557495117 -20.009000778198242 -32.53499984741211 -20.009000778198242 -32.53499984741211 z" stroke-linecap="round" />
</g>
		<g transform="matrix(1 0.04 -0.04 1 -79.08 -97.2)" clip-path="url(#CLIPPATH_66)"  >
<clipPath id="CLIPPATH_66" >
	<rect transform="matrix(1 -0.04 0.04 1 82.93 93.94)" id="__lottie_element_5" x="-200" y="-200" rx="0" ry="0" width="400" height="400" />
</clipPath>
<path style="stroke: none; stroke-width: 1; stroke-dasharray: none; stroke-linecap: butt; stroke-dashoffset: 0; stroke-linejoin: miter; stroke-miterlimit: 4; fill: rgb(120,93,135); fill-rule: nonzero; opacity: 1;" vector-effect="non-scaling-stroke"  transform=" translate(0, 0)" d="M 25.674999237060547 -14.1850004196167 C 25.674999237060547 -14.1850004196167 -25.674999237060547 -17.94499969482422 -25.674999237060547 -17.94499969482422 C -25.674999237060547 -17.94499969482422 -22.125 10.024999618530273 -22.125 10.024999618530273 C -22.125 10.024999618530273 -13.484999656677246 17.94499969482422 -13.484999656677246 17.94499969482422 C -13.484999656677246 17.94499969482422 -12.175000190734863 -7.795000076293945 -12.175000190734863 -7.795000076293945 C -12.175000190734863 -7.795000076293945 4.074999809265137 -6.724999904632568 4.074999809265137 -6.724999904632568 C 4.074999809265137 -6.724999904632568 8.265000343322754 10.53499984741211 8.265000343322754 10.53499984741211 C 8.265000343322754 10.53499984741211 18.104999542236328 9.0649995803833 18.104999542236328 9.0649995803833 C 18.104999542236328 9.0649995803833 25.674999237060547 -14.1850004196167 25.674999237060547 -14.1850004196167 z" stroke-linecap="round" />
</g>
		<g transform="matrix(1 0.04 -0.04 1 -9.06 -79.55)" clip-path="url(#CLIPPATH_67)"  >
<clipPath id="CLIPPATH_67" >
	<rect transform="matrix(1 -0.04 0.04 1 12.25 79.12)" id="__lottie_element_5" x="-200" y="-200" rx="0" ry="0" width="400" height="400" />
</clipPath>
<path style="stroke: none; stroke-width: 1; stroke-dasharray: none; stroke-linecap: butt; stroke-dashoffset: 0; stroke-linejoin: miter; stroke-miterlimit: 4; fill: rgb(195,151,122); fill-rule: nonzero; opacity: 1;" vector-effect="non-scaling-stroke"  transform=" translate(0, 0)" d="M 29.280000686645508 -11 C 29.280000686645508 -11 -29.280000686645508 -21.540000915527344 -29.280000686645508 -21.540000915527344 C -29.280000686645508 -21.540000915527344 -13.850000381469727 -5.46999979019165 -13.850000381469727 -5.46999979019165 C -13.850000381469727 -5.46999979019165 -5.809999942779541 21.540000915527344 -5.809999942779541 21.540000915527344 C -5.809999942779541 21.540000915527344 29.280000686645508 -11 29.280000686645508 -11 z" stroke-linecap="round" />
</g>
		<g transform="matrix(1 0.04 -0.04 1 -18.54 -42.37)" clip-path="url(#CLIPPATH_68)"  >
<clipPath id="CLIPPATH_68" >
	<rect transform="matrix(1 -0.04 0.04 1 20.23 41.59)" id="__lottie_element_5" x="-200" y="-200" rx="0" ry="0" width="400" height="400" />
</clipPath>
<path style="stroke: none; stroke-width: 1; stroke-dasharray: none; stroke-linecap: butt; stroke-dashoffset: 0; stroke-linejoin: miter; stroke-miterlimit: 4; fill: rgb(138,102,81); fill-rule: nonzero; opacity: 1;" vector-effect="non-scaling-stroke"  transform=" translate(0, 0)" d="M -24.665000915527344 -3.5 C -24.665000915527344 -3.5 4.064000129699707 6.150000095367432 4.064000129699707 6.150000095367432 C 4.064000129699707 6.150000095367432 24.665000915527344 3.940000057220459 24.665000915527344 3.940000057220459 C 24.665000915527344 3.940000057220459 5.323999881744385 -6.150000095367432 5.323999881744385 -6.150000095367432 C 5.323999881744385 -6.150000095367432 -24.665000915527344 -3.5 -24.665000915527344 -3.5 z" stroke-linecap="round" />
</g>
		<g transform="matrix(1 0.04 -0.04 1 -18.3 -48.39)" clip-path="url(#CLIPPATH_69)"  >
<clipPath id="CLIPPATH_69" >
	<rect transform="matrix(1 -0.04 0.04 1 20.23 47.62)" id="__lottie_element_5" x="-200" y="-200" rx="0" ry="0" width="400" height="400" />
</clipPath>
<path style="stroke: none; stroke-width: 1; stroke-dasharray: none; stroke-linecap: butt; stroke-dashoffset: 0; stroke-linejoin: miter; stroke-miterlimit: 4; fill: rgb(120,93,135); fill-rule: nonzero; opacity: 1;" vector-effect="non-scaling-stroke"  transform=" translate(0, 0)" d="M -24.665000915527344 2.5250000953674316 C -24.665000915527344 2.5250000953674316 2.1640000343322754 -9.96500015258789 2.1640000343322754 -9.96500015258789 C 2.1640000343322754 -9.96500015258789 14.064000129699707 -7.715000152587891 14.064000129699707 -7.715000152587891 C 14.064000129699707 -7.715000152587891 24.665000915527344 9.96500015258789 24.665000915527344 9.96500015258789 C 24.665000915527344 9.96500015258789 -24.665000915527344 2.5250000953674316 -24.665000915527344 2.5250000953674316 z" stroke-linecap="round" />
</g>
		<g transform="matrix(1 0.04 -0.04 1 -6.04 -75.41)" clip-path="url(#CLIPPATH_70)"  >
<clipPath id="CLIPPATH_70" >
	<rect transform="matrix(1 -0.04 0.04 1 9.06 75.11)" id="__lottie_element_5" x="-200" y="-200" rx="0" ry="0" width="400" height="400" />
</clipPath>
<path style="stroke: none; stroke-width: 1; stroke-dasharray: none; stroke-linecap: butt; stroke-dashoffset: 0; stroke-linejoin: miter; stroke-miterlimit: 4; fill: rgb(232,201,182); fill-rule: nonzero; opacity: 1;" vector-effect="non-scaling-stroke"  transform=" translate(0, 0)" d="M -0.3799999952316284 -19.774999618530273 C -0.3799999952316284 -19.774999618530273 -9 17.524999618530273 -9 17.524999618530273 C -9 17.524999618530273 2.9000000953674316 19.774999618530273 2.9000000953674316 19.774999618530273 C 2.9000000953674316 19.774999618530273 9 -18.084999084472656 9 -18.084999084472656 C 9 -18.084999084472656 -0.3799999952316284 -19.774999618530273 -0.3799999952316284 -19.774999618530273 z" stroke-linecap="round" />
</g>
		<g transform="matrix(1 0.04 -0.04 1 -7.4 -97.7)" clip-path="url(#CLIPPATH_71)"  >
<clipPath id="CLIPPATH_71" >
	<rect transform="matrix(1 -0.04 0.04 1 11.32 97.32)" id="__lottie_element_5" x="-200" y="-200" rx="0" ry="0" width="400" height="400" />
</clipPath>
<path style="stroke: none; stroke-width: 1; stroke-dasharray: none; stroke-linecap: butt; stroke-dashoffset: 0; stroke-linejoin: miter; stroke-miterlimit: 4; fill: rgb(120,93,135); fill-rule: nonzero; opacity: 1;" vector-effect="non-scaling-stroke"  transform=" translate(0, 0)" d="M -30.208999633789062 -3.3399999141693115 C -30.208999633789062 -3.3399999141693115 28.35099983215332 7.199999809265137 28.35099983215332 7.199999809265137 C 28.35099983215332 7.199999809265137 30.209999084472656 -0.3799999952316284 30.209999084472656 -0.3799999952316284 C 30.209999084472656 -0.3799999952316284 -26.298999786376953 -7.199999809265137 -26.298999786376953 -7.199999809265137 C -26.298999786376953 -7.199999809265137 -30.208999633789062 -3.3399999141693115 -30.208999633789062 -3.3399999141693115 z" stroke-linecap="round" />
</g>
		<g transform="matrix(1 0.04 -0.04 1 -9.9 -55.13)" clip-path="url(#CLIPPATH_72)"  >
<clipPath id="CLIPPATH_72" >
	<rect transform="matrix(1 -0.04 0.04 1 12.11 54.69)" id="__lottie_element_5" x="-200" y="-200" rx="0" ry="0" width="400" height="400" />
</clipPath>
<path style="stroke: none; stroke-width: 1; stroke-dasharray: none; stroke-linecap: butt; stroke-dashoffset: 0; stroke-linejoin: miter; stroke-miterlimit: 4; fill: rgb(88,65,100); fill-rule: nonzero; opacity: 1;" vector-effect="non-scaling-stroke"  transform=" translate(0, 0)" d="M 5.949999809265137 -0.7049999833106995 C 5.949999809265137 -0.7049999833106995 -1.090000033378601 2.8949999809265137 -1.090000033378601 2.8949999809265137 C -1.090000033378601 2.8949999809265137 -5.949999809265137 -2.8949999809265137 -5.949999809265137 -2.8949999809265137 C -5.949999809265137 -2.8949999809265137 5.949999809265137 -0.7049999833106995 5.949999809265137 -0.7049999833106995 z" stroke-linecap="round" />
</g>
		<g transform="matrix(1 0.04 -0.04 1 9.52 -76.92)" clip-path="url(#CLIPPATH_73)"  >
<clipPath id="CLIPPATH_73" >
	<rect transform="matrix(1 -0.04 0.04 1 -6.42 77.24)" id="__lottie_element_5" x="-200" y="-200" rx="0" ry="0" width="400" height="400" />
</clipPath>
<path style="stroke: none; stroke-width: 1; stroke-dasharray: none; stroke-linecap: butt; stroke-dashoffset: 0; stroke-linejoin: miter; stroke-miterlimit: 4; fill: rgb(43,43,43); fill-rule: nonzero; opacity: 1;" vector-effect="non-scaling-stroke"  transform=" translate(0, 0)" d="M 0 -4.590000152587891 C 2.5350000858306885 -4.590000152587891 4.590000152587891 -2.5350000858306885 4.590000152587891 0 C 4.590000152587891 2.5350000858306885 2.5350000858306885 4.590000152587891 0 4.590000152587891 C -2.5350000858306885 4.590000152587891 -4.590000152587891 2.5350000858306885 -4.590000152587891 0 C -4.590000152587891 -2.5350000858306885 -2.5350000858306885 -4.590000152587891 0 -4.590000152587891 z" stroke-linecap="round" />
</g>
		<g transform="matrix(1 0.04 -0.04 1 -22.54 -84.43)" clip-path="url(#CLIPPATH_74)"  >
<clipPath id="CLIPPATH_74" >
	<rect transform="matrix(1 -0.04 0.04 1 25.91 83.45)" id="__lottie_element_5" x="-200" y="-200" rx="0" ry="0" width="400" height="400" />
</clipPath>
<path style="stroke: none; stroke-width: 1; stroke-dasharray: none; stroke-linecap: butt; stroke-dashoffset: 0; stroke-linejoin: miter; stroke-miterlimit: 4; fill: rgb(43,43,43); fill-rule: nonzero; opacity: 1;" vector-effect="non-scaling-stroke"  transform=" translate(0, 0)" d="M 0 -4.590000152587891 C 2.5350000858306885 -4.590000152587891 4.590000152587891 -2.5350000858306885 4.590000152587891 0 C 4.590000152587891 2.5350000858306885 2.5350000858306885 4.590000152587891 0 4.590000152587891 C -2.5350000858306885 4.590000152587891 -4.590000152587891 2.5350000858306885 -4.590000152587891 0 C -4.590000152587891 -2.5350000858306885 -2.5350000858306885 -4.590000152587891 0 -4.590000152587891 z" stroke-linecap="round" />
</g>
		<g transform="matrix(1.07 -0.05 0.05 1.07 3.74 -82.92)" clip-path="url(#CLIPPATH_75)"  >
<clipPath id="CLIPPATH_75" >
	<rect transform="matrix(0.93 0.04 -0.04 0.93 -7.14 77.16)" id="__lottie_element_5" x="-200" y="-200" rx="0" ry="0" width="400" height="400" />
</clipPath>
<path style="stroke: none; stroke-width: 1; stroke-dasharray: none; stroke-linecap: butt; stroke-dashoffset: 0; stroke-linejoin: miter; stroke-miterlimit: 4; fill: rgb(43,43,43); fill-rule: nonzero; opacity: 1; visibility: hidden;" vector-effect="non-scaling-stroke"  transform=" translate(0, 0)" d="M 0 -4.590000152587891 C 2.5350000858306885 -4.590000152587891 4.590000152587891 -2.5350000858306885 4.590000152587891 0 C 4.590000152587891 2.5350000858306885 2.5350000858306885 4.590000152587891 0 4.590000152587891 C -2.5350000858306885 4.590000152587891 -4.590000152587891 2.5350000858306885 -4.590000152587891 0 C -4.590000152587891 -2.5350000858306885 -2.5350000858306885 -4.590000152587891 0 -4.590000152587891 z" stroke-linecap="round" />
</g>
		<g transform="matrix(1.07 -0.05 0.05 1.07 -28.84 -87.6)" clip-path="url(#CLIPPATH_76)"  >
<clipPath id="CLIPPATH_76" >
	<rect transform="matrix(0.93 0.04 -0.04 0.93 23.04 82.95)" id="__lottie_element_5" x="-200" y="-200" rx="0" ry="0" width="400" height="400" />
</clipPath>
<path style="stroke: none; stroke-width: 1; stroke-dasharray: none; stroke-linecap: butt; stroke-dashoffset: 0; stroke-linejoin: miter; stroke-miterlimit: 4; fill: rgb(43,43,43); fill-rule: nonzero; opacity: 1; visibility: hidden;" vector-effect="non-scaling-stroke"  transform=" translate(0, 0)" d="M 0 -4.590000152587891 C 2.5350000858306885 -4.590000152587891 4.590000152587891 -2.5350000858306885 4.590000152587891 0 C 4.590000152587891 2.5350000858306885 2.5350000858306885 4.590000152587891 0 4.590000152587891 C -2.5350000858306885 4.590000152587891 -4.590000152587891 2.5350000858306885 -4.590000152587891 0 C -4.590000152587891 -2.5350000858306885 -2.5350000858306885 -4.590000152587891 0 -4.590000152587891 z" stroke-linecap="round" />
</g>
		<g transform="matrix(1 0 0 1 8.67 -79.9)" clip-path="url(#CLIPPATH_77)"  >
<clipPath id="CLIPPATH_77" >
	<rect transform="matrix(1 0 0 1 -8.67 79.9)" id="__lottie_element_5" x="-200" y="-200" rx="0" ry="0" width="400" height="400" />
</clipPath>
<path style="stroke: none; stroke-width: 1; stroke-dasharray: none; stroke-linecap: butt; stroke-dashoffset: 0; stroke-linejoin: miter; stroke-miterlimit: 4; fill: rgb(43,43,43); fill-rule: nonzero; opacity: 1; visibility: hidden;" vector-effect="non-scaling-stroke"  transform=" translate(0, 0)" d="M 0 -4.590000152587891 C 2.5350000858306885 -4.590000152587891 4.590000152587891 -2.5350000858306885 4.590000152587891 0 C 4.590000152587891 2.5350000858306885 2.5350000858306885 4.590000152587891 0 4.590000152587891 C -2.5350000858306885 4.590000152587891 -4.590000152587891 2.5350000858306885 -4.590000152587891 0 C -4.590000152587891 -2.5350000858306885 -2.5350000858306885 -4.590000152587891 0 -4.590000152587891 z" stroke-linecap="round" />
</g>
		<g transform="matrix(1 0 0 1 -23.66 -86.11)" clip-path="url(#CLIPPATH_78)"  >
<clipPath id="CLIPPATH_78" >
	<rect transform="matrix(1 0 0 1 23.66 86.11)" id="__lottie_element_5" x="-200" y="-200" rx="0" ry="0" width="400" height="400" />
</clipPath>
<path style="stroke: none; stroke-width: 1; stroke-dasharray: none; stroke-linecap: butt; stroke-dashoffset: 0; stroke-linejoin: miter; stroke-miterlimit: 4; fill: rgb(43,43,43); fill-rule: nonzero; opacity: 1; visibility: hidden;" vector-effect="non-scaling-stroke"  transform=" translate(0, 0)" d="M 0 -4.590000152587891 C 2.5350000858306885 -4.590000152587891 4.590000152587891 -2.5350000858306885 4.590000152587891 0 C 4.590000152587891 2.5350000858306885 2.5350000858306885 4.590000152587891 0 4.590000152587891 C -2.5350000858306885 4.590000152587891 -4.590000152587891 2.5350000858306885 -4.590000152587891 0 C -4.590000152587891 -2.5350000858306885 -2.5350000858306885 -4.590000152587891 0 -4.590000152587891 z" stroke-linecap="round" />
</g>
		<g transform="matrix(0.99 -0.17 0.17 0.99 -40.59 -87.53)" clip-path="url(#CLIPPATH_79)"  >
<clipPath id="CLIPPATH_79" >
	<rect transform="matrix(0.99 0.17 -0.17 0.99 25.1 93.16)" id="__lottie_element_5" x="-200" y="-200" rx="0" ry="0" width="400" height="400" />
</clipPath>
<path style="stroke: rgb(43,43,43); stroke-width: 4; stroke-dasharray: none; stroke-linecap: butt; stroke-dashoffset: 0; stroke-linejoin: miter; stroke-miterlimit: 4; fill: rgb(0,0,0); fill-opacity: 0; fill-rule: nonzero; opacity: 1; visibility: hidden;" vector-effect="non-scaling-stroke"  transform=" translate(21.13, 83)" d="M -25.75 -85.875 C -25.75 -85.875 -21.625 -80.125 -21.625 -80.125 C -21.625 -80.125 -16.5 -81.5 -16.5 -81.5" stroke-linecap="round" />
</g>
		<g transform="matrix(0.99 -0.17 0.17 0.99 -7.23 -83.52)" clip-path="url(#CLIPPATH_80)"  >
<clipPath id="CLIPPATH_80" >
	<rect transform="matrix(0.99 0.17 -0.17 0.99 -7.08 83.53)" id="__lottie_element_5" x="-200" y="-200" rx="0" ry="0" width="400" height="400" />
</clipPath>
<path style="stroke: rgb(43,43,43); stroke-width: 4; stroke-dasharray: none; stroke-linecap: butt; stroke-dashoffset: 0; stroke-linejoin: miter; stroke-miterlimit: 4; fill: rgb(0,0,0); fill-opacity: 0; fill-rule: nonzero; opacity: 1; visibility: hidden;" vector-effect="non-scaling-stroke"  transform=" translate(-11.06, 73.38)" d="M 6.75 -75.75 C 6.75 -75.75 9.875 -71 9.875 -71 C 9.875 -71 15.375 -71.875 15.375 -71.875" stroke-linecap="round" />
</g>
		<g transform="matrix(0.99 -0.1 0.1 0.99 -25.01 -86.24)" clip-path="url(#CLIPPATH_81)"  >
<clipPath id="CLIPPATH_81" >
	<rect transform="matrix(0.99 0.1 -0.1 0.99 16.06 88.35)" id="__lottie_element_5" x="-200" y="-200" rx="0" ry="0" width="400" height="400" />
</clipPath>
<path style="stroke: rgb(43,43,43); stroke-width: 4; stroke-dasharray: none; stroke-linecap: butt; stroke-dashoffset: 0; stroke-linejoin: miter; stroke-miterlimit: 4; fill: rgb(0,0,0); fill-opacity: 0; fill-rule: nonzero; opacity: 1; visibility: hidden;" vector-effect="non-scaling-stroke"  transform=" translate(21.13, 83)" d="M -25.75 -85.875 C -25.75 -85.875 -21.625 -80.125 -21.625 -80.125 C -21.625 -80.125 -16.5 -81.5 -16.5 -81.5" stroke-linecap="round" />
</g>
		<g transform="matrix(0.99 -0.1 0.1 0.99 8 -79.96)" clip-path="url(#CLIPPATH_82)"  >
<clipPath id="CLIPPATH_82" >
	<rect transform="matrix(0.99 0.1 -0.1 0.99 -16.13 78.72)" id="__lottie_element_5" x="-200" y="-200" rx="0" ry="0" width="400" height="400" />
</clipPath>
<path style="stroke: rgb(43,43,43); stroke-width: 4; stroke-dasharray: none; stroke-linecap: butt; stroke-dashoffset: 0; stroke-linejoin: miter; stroke-miterlimit: 4; fill: rgb(0,0,0); fill-opacity: 0; fill-rule: nonzero; opacity: 1; visibility: hidden;" vector-effect="non-scaling-stroke"  transform=" translate(-11.06, 73.38)" d="M 6.75 -75.75 C 6.75 -75.75 9.875 -71 9.875 -71 C 9.875 -71 15.375 -71.875 15.375 -71.875" stroke-linecap="round" />
</g>
		<g transform="matrix(0 -1 1 0 16.11 -33.89)" clip-path="url(#CLIPPATH_83)"  >
<clipPath id="CLIPPATH_83" >
	<rect transform="matrix(0 1 -1 0 -33.89 -16.12)" id="__lottie_element_5" x="-200" y="-200" rx="0" ry="0" width="400" height="400" />
</clipPath>
<path style="stroke: none; stroke-width: 1; stroke-dasharray: none; stroke-linecap: butt; stroke-dashoffset: 0; stroke-linejoin: miter; stroke-miterlimit: 4; fill: rgb(195,152,123); fill-rule: nonzero; opacity: 1;" vector-effect="non-scaling-stroke"  transform=" translate(-8.51, 29.29)" d="M -2.874000072479248 -29.229999542236328 C -2.874000072479248 -29.229999542236328 1.6460000276565552 -18.63800048828125 1.6460000276565552 -18.63800048828125 C 1.6460000276565552 -18.63800048828125 19.889999389648438 -28.434999465942383 19.889999389648438 -28.434999465942383 C 19.889999389648438 -28.434999465942383 19.844999313354492 -35.856998443603516 19.844999313354492 -35.856998443603516 C 19.844999313354492 -35.856998443603516 12.982999801635742 -39.93899917602539 12.982999801635742 -39.93899917602539 C 12.982999801635742 -39.93899917602539 -2.874000072479248 -29.229999542236328 -2.874000072479248 -29.229999542236328 z" stroke-linecap="round" />
</g>
		<g transform="matrix(1 -0.06 0.06 1 19.36 -14.89)" clip-path="url(#CLIPPATH_84)"  >
<clipPath id="CLIPPATH_84" >
	<rect transform="matrix(1 0.06 -0.06 1 -20.27 13.62)" id="__lottie_element_5" x="-200" y="-200" rx="0" ry="0" width="400" height="400" />
</clipPath>
<path style="stroke: none; stroke-width: 1; stroke-dasharray: none; stroke-linecap: butt; stroke-dashoffset: 0; stroke-linejoin: miter; stroke-miterlimit: 4; fill: rgb(138,102,81); fill-rule: nonzero; opacity: 1;" vector-effect="non-scaling-stroke"  transform=" translate(0, 0)" d="M -10.109999656677246 2.369999885559082 C -10.109999656677246 2.369999885559082 -3.259999990463257 9.90999984741211 -3.259999990463257 9.90999984741211 C -3.259999990463257 9.90999984741211 3.299999952316284 10.789999961853027 3.299999952316284 10.789999961853027 C 3.299999952316284 10.789999961853027 10.109999656677246 -10.789999961853027 10.109999656677246 -10.789999961853027 C 10.109999656677246 -10.789999961853027 -9.989999771118164 -7.75 -9.989999771118164 -7.75 C -9.989999771118164 -7.75 -10.109999656677246 2.369999885559082 -10.109999656677246 2.369999885559082 z" stroke-linecap="round" />
</g>
		<g transform="matrix(1 -0.06 0.06 1 30.93 -17.62)" clip-path="url(#CLIPPATH_85)"  >
<clipPath id="CLIPPATH_85" >
	<rect transform="matrix(1 0.06 -0.06 1 -31.99 15.6)" id="__lottie_element_5" x="-200" y="-200" rx="0" ry="0" width="400" height="400" />
</clipPath>
<path style="stroke: none; stroke-width: 1; stroke-dasharray: none; stroke-linecap: butt; stroke-dashoffset: 0; stroke-linejoin: miter; stroke-miterlimit: 4; fill: rgb(195,151,122); fill-rule: nonzero; opacity: 1;" vector-effect="non-scaling-stroke"  transform=" translate(0, 0)" d="M 14.984999656677246 -10.321000099182129 C 14.984999656677246 -10.321000099182129 2.8550000190734863 13.720999717712402 2.8550000190734863 13.720999717712402 C 2.8550000190734863 13.720999717712402 -14.984999656677246 11.890000343322754 -14.984999656677246 11.890000343322754 C -14.984999656677246 11.890000343322754 -1.6160000562667847 -8.810999870300293 -1.6160000562667847 -8.810999870300293 C -1.6160000562667847 -8.810999870300293 2.8550000190734863 -13.720999717712402 2.8550000190734863 -13.720999717712402 C 2.8550000190734863 -13.720999717712402 14.984999656677246 -10.321000099182129 14.984999656677246 -10.321000099182129 z" stroke-linecap="round" />
</g>
		<g transform="matrix(1 -0.06 0.06 1 25.11 -36.09)" clip-path="url(#CLIPPATH_86)"  >
<clipPath id="CLIPPATH_86" >
	<rect transform="matrix(1 0.06 -0.06 1 -27.37 34.41)" id="__lottie_element_5" x="-200" y="-200" rx="0" ry="0" width="400" height="400" />
</clipPath>
<path style="stroke: none; stroke-width: 1; stroke-dasharray: none; stroke-linecap: butt; stroke-dashoffset: 0; stroke-linejoin: miter; stroke-miterlimit: 4; fill: rgb(232,201,182); fill-rule: nonzero; opacity: 1;" vector-effect="non-scaling-stroke"  transform=" translate(0, 0)" d="M -19.610000610351562 -2.2149999141693115 C -19.610000610351562 -2.2149999141693115 -3.2300000190734863 -9.994999885559082 -3.2300000190734863 -9.994999885559082 C -3.2300000190734863 -9.994999885559082 19.610000610351562 8.484999656677246 19.610000610351562 8.484999656677246 C 19.610000610351562 8.484999656677246 3.009999990463257 9.994999885559082 3.009999990463257 9.994999885559082 C 3.009999990463257 9.994999885559082 -10.930000305175781 6.954999923706055 -10.930000305175781 6.954999923706055 C -10.930000305175781 6.954999923706055 -19.610000610351562 -2.2149999141693115 -19.610000610351562 -2.2149999141693115 z" stroke-linecap="round" />
</g>
		<g transform="matrix(1 -0.06 0.06 1 15.07 -27.56)" clip-path="url(#CLIPPATH_87)"  >
<clipPath id="CLIPPATH_87" >
	<rect transform="matrix(1 0.06 -0.06 1 -16.8 26.54)" id="__lottie_element_5" x="-200" y="-200" rx="0" ry="0" width="400" height="400" />
</clipPath>
<path style="stroke: none; stroke-width: 1; stroke-dasharray: none; stroke-linecap: butt; stroke-dashoffset: 0; stroke-linejoin: miter; stroke-miterlimit: 4; fill: rgb(223,188,164); fill-rule: nonzero; opacity: 1;" vector-effect="non-scaling-stroke"  transform=" translate(-0.35, -0.29)" d="M 13.925000190734863 2.4100000858306885 C 13.925000190734863 2.4100000858306885 1.820048451423645 10.375021934509277 1.820048451423645 10.375021934509277 C 1.820048451423645 10.375021934509277 -13.234973907470703 0.9575198292732239 -13.234973907470703 0.9575198292732239 C -13.234973907470703 0.9575198292732239 -8.694999694824219 -9.800000190734863 -8.694999694824219 -9.800000190734863 C -8.694999694824219 -9.800000190734863 13.925000190734863 2.4100000858306885 13.925000190734863 2.4100000858306885 z" stroke-linecap="round" />
</g>
</g>
</g>
</svg>